<?xml version="1.0" encoding="UTF-8" standalone="no"?>
<svg
   xmlns:dc="http://purl.org/dc/elements/1.1/"
   xmlns:cc="http://creativecommons.org/ns#"
   xmlns:rdf="http://www.w3.org/1999/02/22-rdf-syntax-ns#"
   xmlns:svg="http://www.w3.org/2000/svg"
   xmlns="http://www.w3.org/2000/svg"
   xmlns:sodipodi="http://sodipodi.sourceforge.net/DTD/sodipodi-0.dtd"
   xmlns:inkscape="http://www.inkscape.org/namespaces/inkscape"
   inkscape:version="1.0 (4035a4fb49, 2020-05-01)"
   sodipodi:docname="assistant_greeting.svg"
   viewBox="0 0 564 544"
   height="544"
   width="564"
   id="svg2"
   version="1.1">
  <metadata
     id="metadata8">
    <rdf:RDF>
      <cc:Work
         rdf:about="">
        <dc:format>image/svg+xml</dc:format>
        <dc:type
           rdf:resource="http://purl.org/dc/dcmitype/StillImage" />
        <dc:title></dc:title>
      </cc:Work>
    </rdf:RDF>
  </metadata>
  <defs
     id="defs6" />
  <sodipodi:namedview
     inkscape:current-layer="g10"
     inkscape:window-maximized="1"
     inkscape:window-y="-8"
     inkscape:window-x="-8"
     inkscape:cy="129.01086"
     inkscape:cx="459.3744"
     inkscape:zoom="0.24724265"
     inkscape:guide-bbox="true"
     showguides="true"
     showgrid="false"
     id="namedview4"
     inkscape:window-height="705"
     inkscape:window-width="1366"
     inkscape:pageshadow="2"
     inkscape:pageopacity="0"
     guidetolerance="10"
     gridtolerance="10"
     objecttolerance="10"
     borderopacity="1"
     bordercolor="#666666"
     pagecolor="#ffffff">
    <sodipodi:guide
       id="guide854"
       orientation="1,0"
       position="311.94052,512.65427" />
  </sodipodi:namedview>
  <g
     id="g10"
     inkscape:label="Image"
     inkscape:groupmode="layer">
    <path
       id="path837"
       d="m 81.151675,335.33159 c 0,0 -22.879767,-38.9671 -12.869869,-68.2818 10.009898,-29.31471 30.387191,-18.23232 31.817174,5.00494 1.42999,23.23727 -2.502472,30.3872 10.0099,23.59476 12.51237,-6.79243 8.93741,6.79244 -0.3575,14.65736 -9.2949,7.86492 -7.50742,5.36244 -7.86492,15.01484 -0.35749,9.6524 -2.144974,7.14993 1.78749,14.29986 3.93246,7.14992 17.51732,31.81717 23.59476,51.83697 6.07743,20.0198 12.86987,32.88967 12.86987,32.88967 0,0 18.9473,-33.96216 22.16477,-38.25212 3.21747,-4.28995 14.65735,-21.80727 14.65735,-21.80727 l 36.10713,19.3048 c 0,0 -49.33449,83.29665 -65.77933,97.23901 -16.44483,13.94236 -29.6722,4.64745 -38.25211,-20.73479 -8.57991,-25.38224 -22.879766,-94.37904 -23.594759,-102.95895 -0.714992,-8.57991 -4.289956,-21.80728 -4.289956,-21.80728 z"
       style="fill:#ad744b;stroke:#000000;stroke-width:1px;stroke-linecap:butt;stroke-linejoin:miter;stroke-opacity:1;fill-opacity:1" />
    <path
       id="path841"
       d="m 415.07807,381.20446 c 0,0 10.6171,32.35688 26.28996,49.54647 15.67286,17.18959 15.67286,17.18959 15.67286,17.18959 0,0 -6.06691,20.72863 -7.07806,52.57993 -1.01116,31.8513 1.91258,61.46384 -0.2324,65.0388 -2.14498,3.57496 -12.86987,14.29985 -10.72489,17.87482 2.14497,3.57496 9.2949,-6.43494 9.2949,-0.71499 0,5.71994 -20.73479,47.90451 4.28996,46.47452 25.02474,-1.42998 15.72984,-48.6195 18.58981,-59.34439 2.85997,-10.72489 14.67853,-46.07226 20.74544,-76.40683 6.06692,-30.33457 6.57249,-34.88476 -4.04461,-60.66915 -10.6171,-25.78438 -31.8513,-65.21933 -31.8513,-65.21933 z"
       style="fill:#ad744b;stroke:#000000;stroke-width:1px;stroke-linecap:butt;stroke-linejoin:miter;stroke-opacity:1;fill-opacity:1" />
    <path
       id="path850"
       d="M 311.94052,69.769517 V 31.345725 c 0,0 -30.33457,-19.717472 -56.62453,3.539033 -26.28997,23.256506 -37.91822,58.141264 -23.76209,95.553902 14.15614,37.41264 27.80669,73.81413 12.63941,87.97026 -15.16729,14.15614 -37.91822,-4.55018 -37.91822,-4.55018 0,0 7.58365,17.18959 25.27881,30.33457 17.69517,13.14498 17.69517,13.14498 17.69517,13.14498 l 17.62197,-0.2984 45.06948,12.43223 z"
       style="fill:#343433;stroke:#000000;stroke-width:1px;stroke-linecap:butt;stroke-linejoin:miter;stroke-opacity:1;fill-opacity:1" />
    <path
       style="fill:#343433;stroke:#000000;stroke-width:1px;stroke-linecap:butt;stroke-linejoin:miter;stroke-opacity:1;fill-opacity:1"
       d="M 311.94052,69.769517 V 31.345725 c 0,0 30.33457,-19.717472 56.62453,3.539033 26.28997,23.256506 37.91822,58.141264 23.76209,95.553902 -14.15614,37.41264 -27.80669,73.81413 -12.63941,87.97026 15.16729,14.15614 37.91822,-4.55018 37.91822,-4.55018 0,0 -7.58365,17.18959 -25.27881,30.33457 -17.69517,13.14498 -17.69517,13.14498 -17.69517,13.14498 l -17.62197,-0.2984 -45.06948,12.43223 z"
       id="path852" />
    <path
       id="path845"
       d="M 311.94052,269.47212 V 69.769517 c 0,0 -5.02989,24.96702 -23.44095,32.474443 -18.41107,7.50742 -29.3147,5.36245 -29.3147,5.36245 v 13.04861 c 0,0 -12.33363,-10.54614 -19.30481,-0.53624 -6.97118,10.0099 3.39622,21.98603 10.0099,26.45473 6.61368,4.4687 9.83115,5.00495 9.83115,5.00495 0,0 -1.42999,16.26608 4.28996,26.27598 5.71994,10.0099 23.41601,19.6623 23.41601,19.6623 l -2.78767,39.09293 -17.76837,20.43022 24.4885,23.41601 z"
       style="fill:#ad744b;stroke:#000000;stroke-width:1px;stroke-linecap:butt;stroke-linejoin:miter;stroke-opacity:1;fill-opacity:1" />
    <path
       style="fill:#ad744b;stroke:#000000;stroke-width:1px;stroke-linecap:butt;stroke-linejoin:miter;stroke-opacity:1;fill-opacity:1"
       d="M 311.94052,269.47212 V 69.769517 c 0,0 5.02989,24.96702 23.44095,32.474443 18.41107,7.50742 29.3147,5.36245 29.3147,5.36245 v 13.04861 c 0,0 12.33363,-10.54614 19.30481,-0.53624 6.97118,10.0099 -3.39622,21.98603 -10.0099,26.45473 -6.61368,4.4687 -9.83115,5.00495 -9.83115,5.00495 0,0 1.42999,16.26608 -4.28996,26.27598 -5.71994,10.0099 -23.41601,19.6623 -23.41601,19.6623 l 2.78767,39.09293 17.76837,20.43022 -24.4885,23.41601 z"
       id="path847" />
    <path
       id="path843"
       d="m 214.86989,517.71004 h 195.15242 c 0,0 -33.36803,-42.97398 -32.35688,-89.99257 1.01115,-47.01859 17.18959,-53.59108 17.18959,-53.59108 l 12.13383,21.73978 c 0,0 10.6171,-6.06691 32.86245,-16.17844 22.24535,-10.11152 28.31227,-15.67286 28.31227,-15.67286 0,0 -42.4684,-82.40892 -78.86989,-104.65428 -36.40149,-22.24535 -51.56877,-22.75092 -51.56877,-22.75092 0,0 9.10037,25.78438 -25.78439,25.78438 -34.88476,0 -27.30111,-25.78438 -27.30111,-25.78438 0,0 -44.49071,9.60594 -70.78067,37.91821 -26.28997,28.31227 -56.62454,88.98141 -56.62454,88.98141 0,0 7.58364,11.12268 28.31227,19.71748 20.72862,8.59479 30.33457,12.13383 30.33457,12.13383 l 12.63941,-22.75093 c 0,0 20.72862,15.16728 18.20074,59.65799 -2.52788,44.4907 -31.8513,85.44238 -31.8513,85.44238 z"
       style="fill:#00703c;stroke:#000000;stroke-width:1px;stroke-linecap:butt;stroke-linejoin:miter;stroke-opacity:1;fill-opacity:1" />
    <path
       sodipodi:nodetypes="ccccc"
       id="path856"
       d="m 311.94052,163.04833 v 13.01858 l -6.3197,-0.25278 c -15.16729,-1.39034 -26.92193,-21.67659 -26.92193,-21.67659 12.36722,5.3712 14.52157,7.45352 33.24163,8.91079 z"
       style="fill:#4e4e4e;stroke:#000000;stroke-width:1px;stroke-linecap:butt;stroke-linejoin:miter;stroke-opacity:1;fill-opacity:1" />
    <path
       style="fill:#4e4e4e;stroke:#000000;stroke-width:1px;stroke-linecap:butt;stroke-linejoin:miter;stroke-opacity:1;fill-opacity:1"
       d="m 311.94052,163.04833 v 13.01858 l 6.3197,-0.25278 c 15.16729,-1.39034 26.92193,-21.67659 26.92193,-21.67659 -12.36722,5.3712 -14.52157,7.45352 -33.24163,8.91079 z"
       id="path858"
       sodipodi:nodetypes="ccccc" />
    <path
       style="fill:#ad744b;fill-opacity:1;stroke:#000000;stroke-width:1px;stroke-linecap:butt;stroke-linejoin:miter;stroke-opacity:1"
       d="m 859.06377,335.33159 c 0,0 -22.87977,-38.9671 -12.86987,-68.2818 10.00989,-29.31471 30.38719,-18.23232 31.81717,5.00494 1.42999,23.23727 -2.50247,30.3872 10.0099,23.59476 12.51237,-6.79243 8.93741,6.79244 -0.3575,14.65736 -9.2949,7.86492 -7.50742,5.36244 -7.86492,15.01484 -0.35749,9.6524 -2.14497,7.14993 1.78749,14.29986 3.93246,7.14992 17.51732,31.81717 23.59476,51.83697 6.07743,20.0198 12.86987,32.88967 12.86987,32.88967 0,0 18.9473,-33.96216 22.16477,-38.25212 3.21747,-4.28995 14.65735,-21.80727 14.65735,-21.80727 l 36.10713,19.3048 c 0,0 -49.33449,83.29665 -65.77933,97.23901 -16.44483,13.94236 -29.6722,4.64745 -38.25211,-20.73479 -8.57991,-25.38224 -22.87977,-94.37904 -23.59476,-102.95895 -0.71499,-8.57991 -4.28995,-21.80728 -4.28995,-21.80728 z"
       id="path860" />
    <path
       style="fill:#ad744b;fill-opacity:1;stroke:#000000;stroke-width:1px;stroke-linecap:butt;stroke-linejoin:miter;stroke-opacity:1"
       d="m 1192.9902,381.20446 c 0,0 10.6171,32.35688 26.2899,49.54647 15.6729,17.18959 15.6729,17.18959 15.6729,17.18959 0,0 -6.0669,20.72863 -7.0781,52.57993 -1.0111,31.8513 1.9126,61.46384 -0.2324,65.0388 -2.145,3.57496 -12.8698,14.29985 -10.7249,17.87482 2.145,3.57496 9.2949,-6.43494 9.2949,-0.71499 0,5.71994 -20.7348,47.90451 4.29,46.47452 25.0247,-1.42998 15.7298,-48.6195 18.5898,-59.34439 2.86,-10.72489 14.6785,-46.07226 20.7454,-76.40683 6.067,-30.33457 6.5725,-34.88476 -4.0446,-60.66915 -10.6171,-25.78438 -31.8513,-65.21933 -31.8513,-65.21933 z"
       id="path862" />
    <path
       style="fill:#343433;fill-opacity:1;stroke:#000000;stroke-width:1px;stroke-linecap:butt;stroke-linejoin:miter;stroke-opacity:1"
       d="M 1089.8526,69.769517 V 31.345725 c 0,0 -30.3346,-19.717472 -56.6245,3.539033 -26.29,23.256506 -37.91824,58.141264 -23.7621,95.553902 14.1561,37.41264 27.8067,73.81413 12.6394,87.97026 -15.1673,14.15614 -37.91822,-4.55018 -37.91822,-4.55018 0,0 7.58365,17.18959 25.27882,30.33457 17.6952,13.14498 17.6952,13.14498 17.6952,13.14498 l 17.6219,-0.2984 45.0695,12.43223 z"
       id="path864" />
    <path
       id="path866"
       d="M 1089.8526,69.769517 V 31.345725 c 0,0 30.3346,-19.717472 56.6245,3.539033 26.29,23.256506 37.9183,58.141264 23.7621,95.553902 -14.1561,37.41264 -27.8067,73.81413 -12.6394,87.97026 15.1673,14.15614 37.9182,-4.55018 37.9182,-4.55018 0,0 -7.5836,17.18959 -25.2788,30.33457 -17.6951,13.14498 -17.6951,13.14498 -17.6951,13.14498 l -17.622,-0.2984 -45.0695,12.43223 z"
       style="fill:#343433;fill-opacity:1;stroke:#000000;stroke-width:1px;stroke-linecap:butt;stroke-linejoin:miter;stroke-opacity:1" />
    <path
       style="fill:#ad744b;fill-opacity:1;stroke:#000000;stroke-width:1px;stroke-linecap:butt;stroke-linejoin:miter;stroke-opacity:1"
       d="M 1089.8526,269.47212 V 69.769517 c 0,0 -5.0299,24.96702 -23.4409,32.474443 -18.4111,7.50742 -29.3147,5.36245 -29.3147,5.36245 v 13.04861 c 0,0 -12.3337,-10.54614 -19.3048,-0.53624 -6.9712,10.0099 3.3962,21.98603 10.0099,26.45473 6.6136,4.4687 9.8311,5.00495 9.8311,5.00495 0,0 -1.43,16.26608 4.29,26.27598 5.7199,10.0099 23.416,19.6623 23.416,19.6623 l -2.7877,39.09293 -17.7684,20.43022 24.4885,23.41601 z"
       id="path868" />
    <path
       id="path870"
       d="M 1089.8526,269.47212 V 69.769517 c 0,0 5.0299,24.96702 23.441,32.474443 18.411,7.50742 29.3147,5.36245 29.3147,5.36245 v 13.04861 c 0,0 12.3336,-10.54614 19.3048,-0.53624 6.9712,10.0099 -3.3962,21.98603 -10.0099,26.45473 -6.6137,4.4687 -9.8312,5.00495 -9.8312,5.00495 0,0 1.43,16.26608 -4.2899,26.27598 -5.72,10.0099 -23.416,19.6623 -23.416,19.6623 l 2.7876,39.09293 17.7684,20.43022 -24.4885,23.41601 z"
       style="fill:#ad744b;fill-opacity:1;stroke:#000000;stroke-width:1px;stroke-linecap:butt;stroke-linejoin:miter;stroke-opacity:1" />
    <path
       style="fill:#00703c;fill-opacity:1;stroke:#000000;stroke-width:1px;stroke-linecap:butt;stroke-linejoin:miter;stroke-opacity:1"
       d="m 992.78198,517.71004 h 195.15242 c 0,0 -33.368,-42.97398 -32.3569,-89.99257 1.0112,-47.01859 17.1896,-53.59108 17.1896,-53.59108 l 12.1338,21.73978 c 0,0 10.6171,-6.06691 32.8625,-16.17844 22.2453,-10.11152 28.3123,-15.67286 28.3123,-15.67286 0,0 -42.4684,-82.40892 -78.8699,-104.65428 -36.4015,-22.24535 -51.5688,-22.75092 -51.5688,-22.75092 0,0 9.1004,25.78438 -25.7844,25.78438 -34.8847,0 -27.3011,-25.78438 -27.3011,-25.78438 0,0 -44.4907,9.60594 -70.78067,37.91821 -26.28997,28.31227 -56.62454,88.98141 -56.62454,88.98141 0,0 7.58364,11.12268 28.31227,19.71748 20.72862,8.59479 30.33457,12.13383 30.33457,12.13383 l 12.63937,-22.75093 c 0,0 20.7287,15.16728 18.2008,59.65799 -2.5279,44.4907 -31.85132,85.44238 -31.85132,85.44238 z"
       id="path872" />
    <path
       style="fill:#4e4e4e;fill-opacity:1;stroke:#000000;stroke-width:1px;stroke-linecap:butt;stroke-linejoin:miter;stroke-opacity:1"
       d="m 1089.8526,163.04833 v 13.01858 l -6.3197,-0.25278 c -15.1673,-1.39034 -26.9219,-21.67659 -26.9219,-21.67659 12.3672,5.3712 14.5216,7.45352 33.2416,8.91079 z"
       id="path874"
       sodipodi:nodetypes="ccccc" />
    <path
       sodipodi:nodetypes="ccccc"
       id="path876"
       d="m 1089.8526,163.04833 v 13.01858 l 6.3197,-0.25278 c 15.1673,-1.39034 26.9219,-21.67659 26.9219,-21.67659 -12.3672,5.3712 -14.5215,7.45352 -33.2416,8.91079 z"
       style="fill:#4e4e4e;fill-opacity:1;stroke:#000000;stroke-width:1px;stroke-linecap:butt;stroke-linejoin:miter;stroke-opacity:1" />
  </g>
</svg>
