<?xml version="1.0" encoding="UTF-8" standalone="no"?>
<svg
   xmlns:dc="http://purl.org/dc/elements/1.1/"
   xmlns:cc="http://creativecommons.org/ns#"
   xmlns:rdf="http://www.w3.org/1999/02/22-rdf-syntax-ns#"
   xmlns:svg="http://www.w3.org/2000/svg"
   xmlns="http://www.w3.org/2000/svg"
   xmlns:sodipodi="http://sodipodi.sourceforge.net/DTD/sodipodi-0.dtd"
   xmlns:inkscape="http://www.inkscape.org/namespaces/inkscape"
   sodipodi:docname="company_logo.svg"
   inkscape:version="1.0 (4035a4fb49, 2020-05-01)"
   id="svg8"
   version="1.1"
   viewBox="0 0 125.58618 37.59461"
   height="37.594608mm"
   width="125.58618mm">
  <defs
     id="defs2">
    <rect
       id="rect985"
       height="24.688375"
       width="136.65723"
       y="406.34915"
       x="276.44214" />
  </defs>
  <sodipodi:namedview
     borderlayer="true"
     inkscape:snap-global="false"
     inkscape:window-maximized="1"
     inkscape:window-y="-8"
     inkscape:window-x="-8"
     inkscape:window-height="705"
     inkscape:window-width="1366"
     showgrid="false"
     inkscape:document-rotation="0"
     inkscape:current-layer="g981"
     inkscape:document-units="mm"
     inkscape:cy="145.21323"
     inkscape:cx="275.97433"
     inkscape:zoom="1.4"
     inkscape:pageshadow="2"
     inkscape:pageopacity="0.0"
     borderopacity="1.0"
     bordercolor="#666666"
     pagecolor="#ffffff"
     id="base" />
  <metadata
     id="metadata5">
    <rdf:RDF>
      <cc:Work
         rdf:about="">
        <dc:format>image/svg+xml</dc:format>
        <dc:type
           rdf:resource="http://purl.org/dc/dcmitype/StillImage" />
        <dc:title></dc:title>
      </cc:Work>
    </rdf:RDF>
  </metadata>
  <g
     transform="translate(-161.78352,-350.22253)"
     id="layer1"
     inkscape:groupmode="layer"
     inkscape:label="Layer 1">
    <g
       id="g981">
      <rect
         style="fill:#fefefe;fill-opacity:1;stroke-width:6.05409;stroke-linecap:round;stroke-linejoin:round;paint-order:markers stroke fill"
         id="rect866"
         width="125.58618"
         height="37.594608"
         x="161.78352"
         y="-387.81714"
         transform="scale(1,-1)" />
      <g
         id="g964">
        <path
           inkscape:connector-curvature="0"
           style="font-style:normal;font-variant:normal;font-weight:bold;font-stretch:normal;line-height:1;font-family:Arial;-inkscape-font-specification:'Arial Bold';letter-spacing:0px;word-spacing:0px;fill:#0068af;fill-opacity:1;stroke:none;stroke-width:12.0124;stroke-linecap:round;stroke-linejoin:miter;stroke-miterlimit:4;stroke-dasharray:none;stroke-dashoffset:0;stroke-opacity:1;paint-order:stroke markers fill"
           d="m 275.95183,357.69877 c -0.58294,0 -1.14195,0.14596 -1.67756,0.43884 -0.53555,0.29002 -0.95749,0.70725 -1.26526,1.2517 -0.30476,0.54443 -0.45712,1.11405 -0.45712,1.70882 0,0.59181 0.1494,1.15729 0.44827,1.69583 0.30186,0.53561 0.72086,0.95401 1.25641,1.2558 0.53854,0.29887 1.10344,0.4483 1.69526,0.4483 0.59181,0 1.15553,-0.14943 1.69111,-0.4483 0.53854,-0.30179 0.95752,-0.72019 1.25638,-1.2558 0.30186,-0.53854 0.45244,-1.10402 0.45244,-1.69583 0,-0.59477 -0.15351,-1.16439 -0.46129,-1.70882 -0.30475,-0.54445 -0.72548,-0.96168 -1.26109,-1.2517 -0.53558,-0.29288 -1.09462,-0.43884 -1.67755,-0.43884 z m 0.008,0.66535 c 0.46753,0 0.9158,0.11721 1.34486,0.35096 0.43202,0.23373 0.77073,0.56956 1.01632,1.0075 0.24858,0.43794 0.37279,0.89617 0.37279,1.37555 0,0.47642 -0.12134,0.93112 -0.36394,1.36314 -0.24267,0.43199 -0.57956,0.76897 -1.01161,1.0116 -0.42906,0.24266 -0.88201,0.36395 -1.35842,0.36395 -0.47346,0 -0.9259,-0.12129 -1.35786,-0.36395 -0.43205,-0.24263 -0.76954,-0.57961 -1.0122,-1.0116 -0.23968,-0.43202 -0.35982,-0.88672 -0.35982,-1.36314 0,-0.47938 0.12304,-0.93761 0.36866,-1.37555 0.24853,-0.43794 0.58723,-0.77377 1.01632,-1.0075 0.42906,-0.23375 0.87739,-0.35096 1.3449,-0.35096 z"
           id="path5500-5-5" />
        <path
           inkscape:connector-curvature="0"
           id="path5504-4-1"
           d="m 274.41936,359.30967 v 3.60849 h 0.7323 v -1.48253 h 0.19084 c 0.20417,0 0.37283,0.0518 0.50599,0.15537 0.13312,0.1006 0.30183,0.34762 0.506,0.74117 l 0.30186,0.58599 h 0.90541 l -0.42601,-0.72806 c -0.1508,-0.25755 -0.23963,-0.40395 -0.26639,-0.4393 -0.10358,-0.136 -0.18491,-0.22779 -0.24404,-0.27526 -0.0592,-0.0504 -0.14342,-0.0962 -0.25291,-0.13764 0.3077,-0.0443 0.54571,-0.15829 0.71438,-0.34175 0.17166,-0.18645 0.25752,-0.40985 0.25752,-0.67024 0,-0.18938 -0.0459,-0.36099 -0.13762,-0.51486 -0.0888,-0.1568 -0.20123,-0.27222 -0.33733,-0.3462 -0.13318,-0.077 -0.32103,-0.12579 -0.56364,-0.1465 -0.0829,-0.006 -0.46756,-0.009 -1.15406,-0.009 z m 0.7323,0.57324 h 0.29743 c 0.41723,0 0.679,0.0177 0.7855,0.053 0.10656,0.0325 0.18802,0.0888 0.24423,0.16867 0.0592,0.077 0.0889,0.16561 0.0889,0.2662 0,0.10358 -0.0297,0.19687 -0.0889,0.27969 -0.0592,0.0802 -0.14065,0.13635 -0.24423,0.16868 -0.10059,0.0323 -0.36236,0.0486 -0.7855,0.0486 h -0.29743 z"
           style="font-style:normal;font-variant:normal;font-weight:bold;font-stretch:normal;line-height:1;font-family:Arial;-inkscape-font-specification:'Arial Bold';letter-spacing:0px;word-spacing:0px;fill:#0068af;fill-opacity:1;stroke:none;stroke-width:12.0124;stroke-linecap:round;stroke-linejoin:miter;stroke-miterlimit:4;stroke-dasharray:none;stroke-dashoffset:0;stroke-opacity:1;paint-order:stroke markers fill" />
        <path
           d="m 169.80137,373.17267 v -10.30541 h 3.11413 l 1.86989,7.02968 1.84878,-7.02968 h 3.12121 v 10.30541 h -1.93312 v -8.11219 l -2.04565,8.11219 h -2.00343 l -2.03857,-8.11219 v 8.11219 z"
           style="font-style:normal;font-variant:normal;font-weight:bold;font-stretch:normal;line-height:1;font-family:Arial;-inkscape-font-specification:'Arial Bold';letter-spacing:-0.696351px;word-spacing:0px;fill:#0068af;fill-opacity:1;stroke:none;stroke-width:19.025;stroke-linecap:round;stroke-linejoin:miter;stroke-miterlimit:4;stroke-dasharray:none;stroke-dashoffset:0;stroke-opacity:1;paint-order:stroke markers fill"
           id="path868" />
        <path
           d="m 180.98666,362.86726 h 2.0808 v 5.58149 q 0,1.3287 0.0768,1.72233 0.13365,0.63261 0.63274,1.01928 0.50616,0.3796 1.37776,0.3796 0.88576,0 1.33566,-0.35848 0.4499,-0.36556 0.54131,-0.89284 0.0912,-0.52716 0.0912,-1.7504 v -5.70098 h 2.08081 v 5.41281 q 0,1.85585 -0.16868,2.62212 -0.16868,0.76614 -0.62566,1.29342 -0.4499,0.52716 -1.20908,0.84353 -0.75919,0.30929 -1.98231,0.30929 -1.47626,0 -2.24253,-0.33736 -0.75918,-0.34444 -1.202,-0.88576 -0.44294,-0.54828 -0.58355,-1.14586 -0.20383,-0.88576 -0.20383,-2.61504 z"
           style="font-style:normal;font-variant:normal;font-weight:bold;font-stretch:normal;line-height:1;font-family:Arial;-inkscape-font-specification:'Arial Bold';letter-spacing:-0.696351px;word-spacing:0px;fill:#0068af;fill-opacity:1;stroke:none;stroke-width:19.025;stroke-linecap:round;stroke-linejoin:miter;stroke-miterlimit:4;stroke-dasharray:none;stroke-dashoffset:0;stroke-opacity:1;paint-order:stroke markers fill"
           id="path870" />
        <path
           d="m 190.59022,373.17267 v -10.30541 h 2.02454 l 4.21788,6.88199 v -6.88199 h 1.93311 v 10.30541 h -2.08776 l -4.15453,-6.72026 v 6.72026 z"
           style="font-style:normal;font-variant:normal;font-weight:bold;font-stretch:normal;line-height:1;font-family:Arial;-inkscape-font-specification:'Arial Bold';letter-spacing:-0.696351px;word-spacing:0px;fill:#0068af;fill-opacity:1;stroke:none;stroke-width:19.025;stroke-linecap:round;stroke-linejoin:miter;stroke-miterlimit:4;stroke-dasharray:none;stroke-dashoffset:0;stroke-opacity:1;paint-order:stroke markers fill"
           id="path872" />
        <path
           d="m 202.84398,373.17267 v -4.33725 l -3.77482,-5.96816 h 2.43929 l 2.42512,4.07715 2.37606,-4.07715 h 2.39717 l -3.78897,5.9822 v 4.32321 z"
           style="font-style:normal;font-variant:normal;font-weight:bold;font-stretch:normal;line-height:1;font-family:Arial;-inkscape-font-specification:'Arial Bold';letter-spacing:-0.696351px;word-spacing:0px;fill:#0068af;fill-opacity:1;stroke:none;stroke-width:19.025;stroke-linecap:round;stroke-linejoin:miter;stroke-miterlimit:4;stroke-dasharray:none;stroke-dashoffset:0;stroke-opacity:1;paint-order:stroke markers fill"
           id="path874" />
        <path
           d="m 216.89037,373.17267 h -2.26352 l -0.89979,-2.34079 h -4.11938 l -0.85061,2.34079 h -2.20737 l 4.01392,-10.30541 h 2.2003 z m -3.8312,-4.07715 -1.42,-3.82412 -1.3918,3.82412 z"
           style="font-style:normal;font-variant:normal;font-weight:bold;font-stretch:normal;line-height:1;font-family:Arial;-inkscape-font-specification:'Arial Bold';letter-spacing:-0.696351px;word-spacing:0px;fill:#0068af;fill-opacity:1;stroke:none;stroke-width:19.025;stroke-linecap:round;stroke-linejoin:miter;stroke-miterlimit:4;stroke-dasharray:none;stroke-dashoffset:0;stroke-opacity:1;paint-order:stroke markers fill"
           id="path876" />
        <path
           d="m 222.24372,364.17299 v 7.85578 h 1.6509 q 2.09089,0 3.0585,-0.94728 0.97431,-0.94729 0.97431,-2.99071 0,-2.02992 -0.97431,-2.97051 -0.96761,-0.94728 -3.0585,-0.94728 z m -1.36683,-1.12328 h 2.80802 q 2.93667,0 4.31019,1.22479 1.37364,1.21797 1.37364,3.81628 0,2.61182 -1.38034,3.83649 -1.38045,1.22478 -4.30349,1.22478 h -2.80802 z"
           style="font-style:normal;font-variant:normal;font-weight:normal;font-stretch:normal;line-height:1;font-family:Euphemia;-inkscape-font-specification:Euphemia;letter-spacing:-0.0780674px;word-spacing:0px;fill:#0068af;fill-opacity:1;stroke:none;stroke-width:18.3126;stroke-linecap:round;stroke-linejoin:miter;stroke-miterlimit:4;stroke-dasharray:none;stroke-dashoffset:0;stroke-opacity:1;paint-order:stroke markers fill"
           id="path879" />
        <path
           d="m 231.45062,363.04971 h 6.38745 v 1.1503 h -5.02062 v 2.99083 h 4.81091 v 1.1503 h -4.81091 v 3.66061 h 5.14246 v 1.1503 h -6.50929 z"
           style="font-style:normal;font-variant:normal;font-weight:normal;font-stretch:normal;line-height:1;font-family:Euphemia;-inkscape-font-specification:Euphemia;letter-spacing:-0.0780674px;word-spacing:0px;fill:#0068af;fill-opacity:1;stroke:none;stroke-width:18.3126;stroke-linecap:round;stroke-linejoin:miter;stroke-miterlimit:4;stroke-dasharray:none;stroke-dashoffset:0;stroke-opacity:1;paint-order:stroke markers fill"
           id="path881" />
        <path
           d="m 246.18569,363.38126 v 1.33299 q -0.77811,-0.37208 -1.46833,-0.55477 -0.69023,-0.18269 -1.33299,-0.18269 -1.11647,0 -1.7254,0.43305 -0.60223,0.43305 -0.60223,1.23148 0,0.66979 0.39922,1.01496 0.40591,0.33824 1.52919,0.54807 l 0.82545,0.16918 q 1.52931,0.29089 2.25326,1.02847 0.73076,0.73076 0.73076,1.96224 0,1.46833 -0.98782,2.22611 -0.98112,0.7579 -2.88251,0.7579 -0.71725,0 -1.52919,-0.16236 -0.80524,-0.16248 -1.67135,-0.4804 v -1.40748 q 0.83227,0.46689 1.6307,0.70374 0.79843,0.23685 1.56984,0.23685 1.17051,0 1.80658,-0.46019 0.63606,-0.46007 0.63606,-1.31266 0,-0.74427 -0.46007,-1.16381 -0.45338,-0.41955 -1.49547,-0.62926 l -0.83227,-0.16248 q -1.52919,-0.3044 -2.2126,-0.95398 -0.68342,-0.64958 -0.68342,-1.80669 0,-1.33969 0.94059,-2.1111 0.94729,-0.77141 2.60501,-0.77141 0.71055,0 1.44801,0.12865 0.73757,0.12853 1.50898,0.38559 z"
           style="font-style:normal;font-variant:normal;font-weight:normal;font-stretch:normal;line-height:1;font-family:Euphemia;-inkscape-font-specification:Euphemia;letter-spacing:-0.0780674px;word-spacing:0px;fill:#0068af;fill-opacity:1;stroke:none;stroke-width:18.3126;stroke-linecap:round;stroke-linejoin:miter;stroke-miterlimit:4;stroke-dasharray:none;stroke-dashoffset:0;stroke-opacity:1;paint-order:stroke markers fill"
           id="path883" />
        <path
           d="m 248.83596,363.04971 h 1.36683 v 10.10234 h -1.36683 z"
           style="font-style:normal;font-variant:normal;font-weight:normal;font-stretch:normal;line-height:1;font-family:Euphemia;-inkscape-font-specification:Euphemia;letter-spacing:-0.0780674px;word-spacing:0px;fill:#0068af;fill-opacity:1;stroke:none;stroke-width:18.3126;stroke-linecap:round;stroke-linejoin:miter;stroke-miterlimit:4;stroke-dasharray:none;stroke-dashoffset:0;stroke-opacity:1;paint-order:stroke markers fill"
           id="path885" />
        <path
           d="m 259.72091,371.71074 v -2.71333 h -2.23292 v -1.12316 h 3.58624 v 4.33721 q -0.79173,0.5617 -1.74572,0.8526 -0.9541,0.28419 -2.03673,0.28419 -2.36827,0 -3.70796,-1.38033 -1.33299,-1.38716 -1.33299,-3.85693 0,-2.47648 1.33299,-3.85682 1.33969,-1.38715 3.70796,-1.38715 0.98794,0 1.87425,0.24366 0.89324,0.24355 1.64433,0.71725 v 1.45471 q -0.7579,-0.64276 -1.61049,-0.96761 -0.85248,-0.32473 -1.79307,-0.32473 -1.85403,0 -2.78781,1.03528 -0.92696,1.03528 -0.92696,3.08541 0,2.04354 0.92696,3.07882 0.93378,1.03516 2.78781,1.03516 0.72407,0 1.29234,-0.12171 0.5684,-0.12865 1.02177,-0.39252 z"
           style="font-style:normal;font-variant:normal;font-weight:normal;font-stretch:normal;line-height:1;font-family:Euphemia;-inkscape-font-specification:Euphemia;letter-spacing:-0.0780674px;word-spacing:0px;fill:#0068af;fill-opacity:1;stroke:none;stroke-width:18.3126;stroke-linecap:round;stroke-linejoin:miter;stroke-miterlimit:4;stroke-dasharray:none;stroke-dashoffset:0;stroke-opacity:1;paint-order:stroke markers fill"
           id="path887" />
        <path
           d="m 263.48765,363.04971 h 1.84041 l 4.47937,8.45132 v -8.45132 h 1.3263 v 10.10234 h -1.84053 l -4.47937,-8.45132 v 8.45132 h -1.32618 z"
           style="font-style:normal;font-variant:normal;font-weight:normal;font-stretch:normal;line-height:1;font-family:Euphemia;-inkscape-font-specification:Euphemia;letter-spacing:-0.0780674px;word-spacing:0px;fill:#0068af;fill-opacity:1;stroke:none;stroke-width:18.3126;stroke-linecap:round;stroke-linejoin:miter;stroke-miterlimit:4;stroke-dasharray:none;stroke-dashoffset:0;stroke-opacity:1;paint-order:stroke markers fill"
           id="path889" />
      </g>
      <text
         transform="matrix(0.53255026,0,0,0.53255026,42.62854,161.7829)"
         style="font-style:normal;font-weight:normal;font-size:10.5833px;line-height:1.25;font-family:sans-serif;white-space:pre;shape-inside:url(#rect985);fill:#000000;fill-opacity:1;stroke:none;"
         id="text983"
         xml:space="preserve"><tspan
           x="276.44141"
           y="415.71335"><tspan
             style="font-weight:bold">COMPANY LOGO HERE</tspan></tspan></text>
    </g>
  </g>
</svg>
