<?xml version="1.0" encoding="UTF-8" standalone="no"?>
<svg
   xmlns:dc="http://purl.org/dc/elements/1.1/"
   xmlns:cc="http://creativecommons.org/ns#"
   xmlns:rdf="http://www.w3.org/1999/02/22-rdf-syntax-ns#"
   xmlns:svg="http://www.w3.org/2000/svg"
   xmlns="http://www.w3.org/2000/svg"
   xmlns:sodipodi="http://sodipodi.sourceforge.net/DTD/sodipodi-0.dtd"
   xmlns:inkscape="http://www.inkscape.org/namespaces/inkscape"
   inkscape:version="1.0 (4035a4fb49, 2020-05-01)"
   sodipodi:docname="quote-currency.svg"
   id="svg1264"
   version="1.1"
   viewBox="0 0 97.16398 107.67815"
   height="107.67815mm"
   width="97.163979mm">
  <defs
     id="defs1258">
    <rect
       x="177.46063"
       y="108.01951"
       width="25.448206"
       height="34.788239"
       id="rect909" />
    <rect
       x="177.46063"
       y="108.01951"
       width="25.448206"
       height="34.788239"
       id="rect1803" />
    <rect
       id="rect8910"
       height="34.788239"
       width="25.448206"
       y="108.01951"
       x="177.46063" />
    <rect
       id="rect1806"
       height="34.788239"
       width="25.448206"
       y="108.01951"
       x="177.46063" />
  </defs>
  <sodipodi:namedview
     inkscape:window-maximized="0"
     inkscape:window-y="0"
     inkscape:window-x="0"
     inkscape:window-height="718"
     inkscape:window-width="1018"
     showgrid="false"
     inkscape:document-rotation="0"
     inkscape:current-layer="layer1"
     inkscape:document-units="mm"
     inkscape:cy="101.50159"
     inkscape:cx="411.18538"
     inkscape:zoom="0.35"
     inkscape:pageshadow="2"
     inkscape:pageopacity="0.0"
     borderopacity="1.0"
     bordercolor="#666666"
     pagecolor="#ffffff"
     id="base" />
  <metadata
     id="metadata1261">
    <rdf:RDF>
      <cc:Work
         rdf:about="">
        <dc:format>image/svg+xml</dc:format>
        <dc:type
           rdf:resource="http://purl.org/dc/dcmitype/StillImage" />
        <dc:title></dc:title>
      </cc:Work>
    </rdf:RDF>
  </metadata>
  <g
     transform="translate(2.9594628,-121.31103)"
     id="layer1"
     inkscape:groupmode="layer"
     inkscape:label="Layer 1">
    <g
       transform="translate(-26.221995,65.775395)"
       id="g1028">
      <path
         id="rect8889"
         style="opacity:1;fill:#5d0000;fill-opacity:1;stroke-width:1.82544"
         d="m 45.908909,103.7743 c -2.451469,0 -4.424164,1.97366 -4.424164,4.42513 v 14.30073 c 0,0.41511 0.06006,0.81475 0.165932,1.19518 -0.864563,4.96967 -2.023003,7.2642 -2.023003,7.2642 0,0 0.761883,-1.20962 5.580249,-4.05124 0.0199,-0.0109 0.04217,-0.0223 0.06225,-0.034 0.209231,0.0301 0.420799,0.0509 0.638629,0.0509 h 33.084136 c 2.451451,0 4.425113,-1.97364 4.425113,-4.42511 V 108.1994 c 0,-2.45147 -1.973662,-4.42513 -4.425113,-4.42513 z"
         sodipodi:nodetypes="sssccscssssss" />
      <path
         sodipodi:nodetypes="sssccscssssss"
         d="m 107.65147,131.65869 c 2.45146,0 4.42416,1.97365 4.42416,4.4251 v 4.64114 c 0,0.41509 -0.0601,0.81474 -0.16594,1.19518 0.86457,4.96965 2.02301,7.2642 2.02301,7.2642 0,0 -0.76189,-1.20964 -5.58025,-4.05125 -0.0198,-0.0109 -0.0422,-0.0223 -0.0622,-0.034 -0.20923,0.0301 -0.4208,0.0509 -0.63862,0.0509 H 74.567419 c -2.451452,0 -4.425113,-1.97364 -4.425113,-4.42512 v -4.64112 c 0,-2.45146 1.973661,-4.42512 4.425113,-4.42512 z"
         style="opacity:1;fill:#aa8800;fill-opacity:1;stroke-width:1.82544"
         id="path8899" />
      <path
         id="path8901"
         style="opacity:1;fill:#5a7000;fill-opacity:1;stroke-width:1.82544"
         d="m 45.246,149.55201 c -2.45147,0 -4.424164,1.97364 -4.424164,4.4251 v 0.7773 c 0,0.41511 0.06006,0.81476 0.165931,1.19519 -0.864563,4.96966 -2.023002,7.26419 -2.023002,7.26419 0,0 0.761882,-1.20962 5.580248,-4.05124 0.01989,-0.0109 0.04217,-0.0223 0.06225,-0.034 0.209231,0.0301 0.4208,0.051 0.638629,0.051 h 33.084136 c 2.451452,0 4.425113,-1.97365 4.425113,-4.42512 v -0.77729 c 0,-2.45147 -1.973661,-4.42511 -4.425113,-4.42511 z"
         sodipodi:nodetypes="sssccscssssss" />
      <g
         id="g915"
         transform="matrix(0.87939734,-0.23563381,0.23563381,0.87939734,-222.01706,43.23184)">
        <text
           xml:space="preserve"
           id="text903"
           style="font-style:normal;font-variant:normal;font-weight:bold;font-stretch:normal;font-size:10.5833px;line-height:1.25;font-family:'Source Code Pro';-inkscape-font-specification:'Source Code Pro Bold';letter-spacing:0px;white-space:pre;shape-inside:url(#rect909);fill:#000000;fill-opacity:0.662602;"
           transform="matrix(4.8760088,0,0,4.8760088,-614.14051,-442.14705)"><tspan
             x="177.46094"
             y="117.27992"><tspan
               style="font-style:normal;font-variant:normal;font-weight:bold;font-stretch:normal;font-family:'Source Code Pro';-inkscape-font-specification:'Source Code Pro Bold';fill:#000000;fill-opacity:0.662602">$</tspan></tspan></text>
        <text
           transform="matrix(4.8760088,0,0,4.8760088,-611.72855,-444.24532)"
           style="font-style:normal;font-variant:normal;font-weight:bold;font-stretch:normal;font-size:10.5833px;line-height:1.25;font-family:'Source Code Pro';-inkscape-font-specification:'Source Code Pro Bold';letter-spacing:0px;white-space:pre;shape-inside:url(#rect8910);fill:#aad400;fill-opacity:1;"
           id="text8908"
           xml:space="preserve"><tspan
             x="177.46094"
             y="117.27992"><tspan
               style="font-style:normal;font-variant:normal;font-weight:bold;font-stretch:normal;font-family:'Source Code Pro';-inkscape-font-specification:'Source Code Pro Bold';fill:#aad400;fill-opacity:1">$</tspan></tspan></text>
      </g>
      <g
         id="g919"
         transform="matrix(0.87939734,0.23563381,-0.23563381,0.87939734,-162.74727,-88.621441)">
        <path
           id="path905"
           style="font-style:normal;font-variant:normal;font-weight:bold;font-stretch:normal;font-size:10.5833px;line-height:1.25;font-family:'Source Code Pro';-inkscape-font-specification:'Source Code Pro Bold';letter-spacing:0px;white-space:pre;fill:#000000;fill-opacity:0.662602;stroke-width:4.13367"
           d="m 291.67683,98.69375 v 13.11163 h -4.64397 v 5.02205 h 4.64397 v 10.38799 h 6.42977 v -10.27907 h 3.36868 l 5.46852,10.27907 h 7.21798 l -5.8509,-10.38799 h 7.45512 v -5.02205 h -3.80872 c 0.56352,-1.19149 0.84807,-2.60001 0.84807,-4.23172 0,-1.69159 -0.29019,-3.10704 -0.87369,-4.24451 -0.58331,-1.1374 -1.38665,-2.03992 -2.4074,-2.71074 -0.99164,-0.699941 -2.15741,-1.197231 -3.49899,-1.4889 -1.31244,-0.291835 -2.72579,-0.43576 -4.24239,-0.43576 z m 6.42977,5.11817 h 3.15079 c 1.72077,0 3.0171,0.27698 3.89202,0.83097 0.87499,0.55415 1.31373,1.53085 1.31373,2.93077 0,2.82902 -1.73507,4.24449 -5.20575,4.24449 h -3.15079 z" />
        <path
           d="m 291.19537,96.117142 v 13.111638 h -4.64397 v 5.02204 h 4.64397 v 10.38799 h 6.42977 v -10.27907 h 3.36868 l 5.46851,10.27907 h 7.21799 l -5.8509,-10.38799 h 7.45511 v -5.02204 h -3.80871 c 0.56351,-1.1915 0.84807,-2.60001 0.84807,-4.23172 0,-1.69159 -0.29019,-3.10705 -0.87369,-4.24451 -0.58332,-1.13741 -1.38666,-2.039928 -2.4074,-2.710738 -0.99165,-0.69995 -2.15742,-1.19724 -3.49899,-1.48891 -1.31245,-0.291834 -2.72579,-0.43576 -4.2424,-0.43576 z m 6.42977,5.118168 h 3.15078 c 1.72078,0 3.0171,0.27698 3.89203,0.83097 0.87498,0.55415 1.31373,1.53086 1.31373,2.93078 0,2.82902 -1.73508,4.24448 -5.20576,4.24448 h -3.15078 z"
           style="font-style:normal;font-variant:normal;font-weight:bold;font-stretch:normal;font-size:10.5833px;line-height:1.25;font-family:'Source Code Pro';-inkscape-font-specification:'Source Code Pro Bold';letter-spacing:0px;white-space:pre;fill:#ffcc00;fill-opacity:1;stroke-width:4.13367"
           id="path8930" />
      </g>
      <g
         id="g923"
         transform="matrix(0.78844608,0.45520956,-0.45520956,0.78844608,-107.41237,-139.00536)">
        <path
           id="path907"
           style="font-style:normal;font-variant:normal;font-weight:bold;font-stretch:normal;font-size:10.5833px;line-height:1.25;font-family:'Source Code Pro';-inkscape-font-specification:'Source Code Pro Bold';letter-spacing:0px;white-space:pre;fill:#000000;fill-opacity:0.662602;stroke-width:4.13367"
           d="m 333.18525,91.539849 v 7.153901 h -7.26927 v 5.38093 h 12.07557 l -13.3423,19.24871 v 3.89205 h 8.536 v 7.02574 h 5.02204 v -7.02574 h 7.9208 v -5.42365 h -13.51748 l 13.3423,-19.20599 v -3.89205 h -7.74562 v -7.153901 z" />
        <path
           d="m 331.13267,89.950477 v 7.1539 h -7.26927 v 5.380933 h 12.07556 l -13.3423,19.24871 v 3.89206 h 8.53601 v 7.02573 h 5.02204 v -7.02573 h 7.92079 v -5.42365 h -13.51747 l 13.3423,-19.20599 v -3.892063 h -7.74562 v -7.1539 z"
           style="font-style:normal;font-variant:normal;font-weight:bold;font-stretch:normal;font-size:10.5833px;line-height:1.25;font-family:'Source Code Pro';-inkscape-font-specification:'Source Code Pro Bold';letter-spacing:0px;white-space:pre;fill:#aa0000;fill-opacity:1;stroke-width:4.13367"
           id="path51" />
      </g>
      <g
         id="g960"
         transform="translate(0,1.5875)">
        <rect
           y="106.75295"
           x="45.454685"
           height="2.6223857"
           width="33.981747"
           id="rect943"
           style="opacity:1;fill:#ffffff;fill-opacity:0.345528;stroke:none;stroke-width:1;stroke-opacity:0" />
        <g
           transform="translate(0,0.21853447)"
           id="g953">
          <rect
             y="111.99773"
             x="45.454685"
             height="2.6223857"
             width="15.843578"
             id="rect945"
             style="opacity:1;fill:#ffffff;fill-opacity:0.345528;stroke:none;stroke-width:0.682816;stroke-opacity:0" />
          <rect
             style="opacity:1;fill:#ffffff;fill-opacity:0.345528;stroke:none;stroke-width:0.682816;stroke-opacity:0"
             id="rect947"
             width="15.843578"
             height="2.6223857"
             x="63.592854"
             y="111.99773" />
        </g>
        <rect
           style="opacity:1;fill:#ffffff;fill-opacity:0.345528;stroke:none;stroke-width:0.872959;stroke-opacity:0"
           id="rect949"
           width="25.896057"
           height="2.6223857"
           x="45.454685"
           y="117.67957" />
      </g>
      <g
         transform="translate(28.89628,27.547794)"
         id="g972">
        <rect
           style="opacity:1;fill:#ffffff;fill-opacity:0.345528;stroke:none;stroke-width:0.829445;stroke-opacity:0"
           id="rect962"
           width="24.555687"
           height="2.4966948"
           x="45.454685"
           y="106.8158" />
        <g
           id="g968"
           transform="translate(0,0.21853447)">
          <rect
             style="opacity:1;fill:#ffffff;fill-opacity:0.345528;stroke:none;stroke-width:0.985388;stroke-opacity:0"
             id="rect964"
             width="32.995914"
             height="2.6223857"
             x="45.454685"
             y="111.99773" />
        </g>
      </g>
      <rect
         y="152.90532"
         x="45.454685"
         height="2.6223857"
         width="19.706717"
         id="rect964-3"
         style="opacity:1;fill:#ffffff;fill-opacity:0.345528;stroke:none;stroke-width:0.761525;stroke-opacity:0" />
      <rect
         style="opacity:1;fill:#ffffff;fill-opacity:0.345528;stroke:none;stroke-width:0.586054;stroke-opacity:0"
         id="rect1000"
         width="11.671388"
         height="2.6223857"
         x="67.765045"
         y="152.90532" />
    </g>
  </g>
</svg>
