<?xml version="1.0" encoding="UTF-8" standalone="no"?>
<svg
   xmlns:dc="http://purl.org/dc/elements/1.1/"
   xmlns:cc="http://creativecommons.org/ns#"
   xmlns:rdf="http://www.w3.org/1999/02/22-rdf-syntax-ns#"
   xmlns:svg="http://www.w3.org/2000/svg"
   xmlns="http://www.w3.org/2000/svg"
   xmlns:sodipodi="http://sodipodi.sourceforge.net/DTD/sodipodi-0.dtd"
   xmlns:inkscape="http://www.inkscape.org/namespaces/inkscape"
   width="134.70386mm"
   height="134.70384mm"
   viewBox="0 0 134.70386 134.70385"
   version="1.1"
   id="svg1264"
   sodipodi:docname="quote-currency.svg"
   inkscape:version="1.0 (4035a4fb49, 2020-05-01)">
  <defs
     id="defs1258">
    <marker
       inkscape:stockid="DotM"
       orient="auto"
       refY="0"
       refX="0"
       id="DotM"
       style="overflow:visible"
       inkscape:isstock="true">
      <path
         id="path1908"
         d="m -2.5,-1 c 0,2.76 -2.24,5 -5,5 -2.76,0 -5,-2.24 -5,-5 0,-2.76 2.24,-5 5,-5 2.76,0 5,2.24 5,5 z"
         style="fill:#000000;fill-opacity:1;fill-rule:evenodd;stroke:#000000;stroke-width:1pt;stroke-opacity:1"
         transform="matrix(0.4,0,0,0.4,2.96,0.4)" />
    </marker>
    <inkscape:path-effect
       effect="spiro"
       id="path-effect930"
       is_visible="true"
       lpeversion="1" />
    <rect
       id="rect909"
       height="34.788239"
       width="25.448206"
       y="108.01951"
       x="177.46063" />
    <rect
       id="rect1803"
       height="34.788239"
       width="25.448206"
       y="108.01951"
       x="177.46063" />
    <rect
       x="177.46063"
       y="108.01951"
       width="25.448206"
       height="34.788239"
       id="rect8910" />
    <rect
       x="177.46063"
       y="108.01951"
       width="25.448206"
       height="34.788239"
       id="rect1806" />
  </defs>
  <sodipodi:namedview
     inkscape:snap-global="true"
     id="base"
     pagecolor="#ffffff"
     bordercolor="#666666"
     borderopacity="1.0"
     inkscape:pageopacity="0.0"
     inkscape:pageshadow="2"
     inkscape:zoom="0.98994949"
     inkscape:cx="104.14035"
     inkscape:cy="259.63077"
     inkscape:document-units="mm"
     inkscape:current-layer="layer1"
     inkscape:document-rotation="0"
     showgrid="false"
     inkscape:window-width="1366"
     inkscape:window-height="705"
     inkscape:window-x="-8"
     inkscape:window-y="-8"
     inkscape:window-maximized="1" />
  <metadata
     id="metadata1261">
    <rdf:RDF>
      <cc:Work
         rdf:about="">
        <dc:format>image/svg+xml</dc:format>
        <dc:type
           rdf:resource="http://purl.org/dc/dcmitype/StillImage" />
        <dc:title />
      </cc:Work>
    </rdf:RDF>
  </metadata>
  <g
     inkscape:label="Layer 1"
     inkscape:groupmode="layer"
     id="layer1"
     transform="translate(19.669363,-109.09771)">
    <rect
       style="fill:#ffffff;fill-opacity:0;stroke:none;stroke-width:4.54054;stroke-linecap:round;stroke-linejoin:round;paint-order:markers stroke fill"
       id="rect1832"
       width="134.70386"
       height="134.70384"
       x="-19.669363"
       y="109.09771" />
    <g
       id="g2170"
       transform="translate(0.85239463,-1.7259082)">
      <path
         sodipodi:nodetypes="ssssssssss"
         inkscape:original-d="m 3.9003333,185.41793 c -9.1520084,-16.3044 -13.7261273,-1.36639 -12.1321978,-14.72316 1.5939254,-13.35678 5.4440668,-28.22997 3.6734332,-39.38637 -1.7706399,-11.15641 25.9029843,3.9435 42.7798193,2.34825 16.876843,-1.59524 26.482884,-13.05842 37.224262,-18.40052 10.741376,-5.34209 2.223659,16.16812 1.503219,27.83787 -0.72044,11.66975 26.631701,54.93772 32.766871,36.89231 4.03976,-11.88206 -29.947741,22.35042 -44.599515,35.84155 C 50.464447,229.31897 36.290437,227.84619 23.07695,243.25778 9.863472,258.66941 13.052337,201.72232 3.9003333,185.41793 Z"
         inkscape:path-effect="#path-effect930"
         id="path928"
         d="m 3.9003333,185.41793 c -3.06139,-5.59071 -8.1140799,-9.77514 -12.1321978,-14.72316 -4.8362755,-5.95552 -8.2470005,-13.38315 -8.0313725,-21.052 0.107814,-3.83443 1.137134,-7.66511 3.143618,-10.93443 2.006483,-3.26933 5.0081925,-5.95402 8.5611877,-7.39994 3.370018,-1.37145 7.1169133,-1.60542 10.7353,-1.22439 3.6183866,0.38104 7.1450483,1.35274 10.6506923,2.32659 3.505644,0.97384 7.028045,1.95721 10.64379,2.36254 3.615745,0.40534 7.361898,0.20957 10.750037,-1.11649 3.546161,-1.3879 6.518839,-3.93391 9.146135,-6.69051 2.627295,-2.7566 4.98535,-5.76912 7.736804,-8.40181 2.751454,-2.63269 5.982919,-4.91348 9.686471,-5.79962 1.851776,-0.44306 3.801519,-0.52412 5.663612,-0.12664 1.862093,0.39748 3.63237,1.28432 4.99124,2.61806 1.715861,1.68413 2.709249,4.00775 3.098024,6.38036 0.388775,2.37262 0.209973,4.8046 -0.15753,7.18061 -0.735006,4.75201 -2.222961,9.533 -1.437275,14.2769 0.69324,4.18572 3.129368,7.92493 6.153227,10.90101 3.02386,2.97609 6.630846,5.27991 10.209603,7.55879 3.578757,2.27889 7.187701,4.57881 10.217511,7.54885 3.0298,2.97003 5.47656,6.70075 6.18653,10.88366 0.43052,2.53648 0.20675,5.16818 -0.53708,7.63107 -0.74383,2.46288 -1.99985,4.75868 -3.58324,6.78648 -3.16677,4.0556 -7.575433,6.98886 -12.222174,9.19888 -9.293482,4.42003 -19.867305,6.26541 -28.257021,12.22512 -7.183172,5.10263 -12.087144,12.75113 -18.36691,18.93169 -3.139883,3.09029 -6.686439,5.84981 -10.75428,7.54137 -4.067841,1.69156 -8.706855,2.25079 -12.918085,0.95686 -2.566515,-0.78858 -4.909408,-2.24202 -6.852542,-4.09488 -1.943134,-1.85286 -3.493038,-4.09838 -4.662168,-6.5154 C 9.2239816,227.81346 8.419235,222.37761 8.1623625,217.0139 7.90549,211.65018 8.1662567,206.26876 7.8192092,200.91012 7.4721617,195.55149 6.4794327,190.12788 3.9003333,185.41793 Z"
         style="fill:#fdffdc;fill-opacity:1;stroke:none;stroke-width:0.322567px;stroke-linecap:butt;stroke-linejoin:miter;stroke-opacity:1" />
      <path
         sodipodi:nodetypes="cccccccccccccccsccccccccsccccccccccccccccccccccccccscccccssscccccccccscccccsscccccc"
         d="m 20.944017,127.9235 4.733963,15.84467 -5.611814,1.67705 1.812967,6.06889 5.612525,-1.67689 3.750992,12.55357 7.769848,-2.32189 -3.711694,-12.4218 4.071064,-1.21644 10.320299,10.44748 8.722298,-2.60641 -10.821343,-10.44107 9.009172,-2.69149 -1.813677,-6.06905 -4.602664,1.37521 c 0.250766,-1.64334 0.08643,-3.44811 -0.502752,-5.41997 -0.610802,-2.04422 -1.472969,-3.65009 -2.588827,-4.81399 -1.115603,-1.16388 -2.412155,-1.96435 -3.88791,-2.40643 -1.451095,-0.48779 -3.039176,-0.66774 -4.765741,-0.53579 -1.691408,0.12123 -3.451486,0.45723 -5.284235,1.00485 z m 9.617943,3.86312 3.80778,-1.1374 c 2.079482,-0.62134 3.745657,-0.75481 5.003002,-0.40125 1.257488,0.35373 2.140397,1.37546 2.645886,3.06721 1.021505,3.41875 -0.564228,5.75586 -4.758412,7.00906 l -3.807507,1.13785 z m -2.645681,42.03956 2.583349,8.64546 -8.784922,2.62495 1.942845,6.50236 14.592723,-4.36023 -9.172825,28.07885 1.405295,4.70371 10.315519,-3.08234 2.536857,8.49019 6.068609,-1.81341 -2.536856,-8.49019 9.572392,-2.86002 -1.958612,-6.55456 -16.335557,4.881 9.18876,-28.02737 -1.40502,-4.70326 -9.360596,2.79692 -2.58308,-8.64503 z m 34.794203,-8.29403 -4.379334,4.6372 6.198453,5.85444 c -1.885749,2.75496 -2.805822,5.46702 -2.760307,8.13614 0.04557,2.66911 1.093604,4.97173 3.144029,6.90828 1.451076,1.37049 2.978453,2.18625 4.582014,2.4474 1.633371,0.22962 3.257702,0.15272 4.873559,-0.23108 1.645609,-0.4153 3.255653,-1.01363 4.829416,-1.79532 1.57378,-0.78158 3.042092,-1.48381 4.405574,-2.10596 1.393262,-0.65369 2.623843,-1.10305 3.691138,-1.34842 1.09711,-0.27682 1.976721,-0.10233 2.639173,0.52333 0.662424,0.62564 0.899778,1.41699 0.712255,2.37386 -0.187522,0.95688 -0.817525,2.00323 -1.89009,3.13886 -1.430086,1.51418 -3.037857,2.71107 -4.823681,3.59083 -1.78761,0.8184 -3.854148,1.5525 -6.199023,2.20271 l 1.871736,7.49727 c 2.173131,-0.21551 4.365423,-0.83036 6.57716,-1.84507 2.180197,-1.04444 4.079369,-2.26525 5.696916,-3.66204 l 6.908275,6.52484 4.379335,-4.63721 -7.050327,-6.65887 c 2.061014,-3.06692 3.006816,-5.96377 2.836848,-8.6907 -0.201498,-2.75672 -1.296133,-5.07344 -3.283494,-6.95043 -1.419541,-1.34071 -2.946088,-2.12592 -4.579429,-2.35552 -1.603561,-0.26114 -3.227923,-0.18426 -4.873559,0.23107 -1.647393,0.35395 -3.258224,0.9218 -4.832004,1.70344 -1.543994,0.75005 -2.996528,1.46678 -4.358257,2.15025 -1.331946,0.65194 -2.514838,1.14639 -3.548824,1.48286 -1.004202,0.30495 -1.790552,0.18895 -2.358366,-0.34733 -1.451077,-1.37049 -1.148562,-3.14387 0.907193,-5.32049 1.221546,-1.29337 2.498972,-2.23551 3.832641,-2.8261 1.331917,-0.65191 2.913682,-1.15716 4.745114,-1.51641 l -0.712249,-7.20829 c -1.93305,0.0245 -3.811882,0.33914 -5.636282,0.94374 -1.826096,0.54334 -3.623919,1.53082 -5.394035,2.96257 z"
         style="font-style:normal;font-variant:normal;font-weight:bold;font-stretch:normal;font-size:10.5833px;line-height:1.25;font-family:'Source Code Pro';-inkscape-font-specification:'Source Code Pro Bold';letter-spacing:0px;white-space:pre;fill:#000000;fill-opacity:0.189516;stroke-width:6.14987"
         id="path55" />
      <path
         sodipodi:nodetypes="cccssscccccscccccccccsscccccscccccccc"
         d="m 76.44341,206.00409 -1.871624,-7.49735 c 2.344884,-0.65018 4.411125,-1.38449 6.198721,-2.20293 1.785826,-0.87975 3.393783,-2.07672 4.82387,-3.59089 1.072565,-1.13564 1.70261,-2.18189 1.890135,-3.13876 0.187524,-0.95687 -0.04993,-1.74813 -0.712352,-2.37377 -0.662452,-0.62566 -1.542224,-0.80006 -2.639316,-0.52319 -1.067308,0.24534 -2.297594,0.69485 -3.690858,1.34854 -1.363483,0.62215 -2.832114,1.32402 -4.405893,2.10561 -1.573778,0.78164 -3.183471,1.38011 -4.829079,1.79541 -1.615857,0.38379 -3.240471,0.46088 -4.873843,0.23125 -1.60356,-0.26114 -3.130877,-1.07695 -4.581949,-2.44744 -2.050429,-1.93656 -3.098431,-4.2394 -3.144007,-6.90852 -0.04551,-2.66911 0.874605,-5.38115 2.760355,-8.13611 l -6.198633,-5.85439 4.37962,-4.63713 6.151328,5.80972 c 1.770117,-1.43175 3.568221,-2.4193 5.394311,-2.96264 1.824404,-0.6046 3.703129,-0.91915 5.636177,-0.94365 l 0.712341,7.20819 c -1.831437,0.35924 -3.413117,0.86481 -4.74504,1.5167 -1.333668,0.59059 -2.611273,1.53257 -3.832815,2.82594 -2.055754,2.17663 -2.358092,3.95019 -0.907014,5.32068 0.567814,0.53628 1.353826,0.65196 2.358037,0.34703 1.033986,-0.33648 2.216953,-0.83068 3.548903,-1.48261 1.361732,-0.68347 2.814595,-1.40023 4.358589,-2.15028 1.573777,-0.78165 3.184366,-1.34943 4.831767,-1.70336 1.645634,-0.41534 3.270233,-0.49244 4.873796,-0.23129 1.63334,0.2296 3.159781,1.01475 4.579321,2.35545 1.98736,1.877 3.08179,4.19386 3.28329,6.95057 0.169963,2.72693 -0.775561,5.62386 -2.836572,8.69078 l 7.050354,6.65883 -4.379616,4.63713 -6.908397,-6.52475 c -1.617551,1.39679 -3.516426,2.61741 -5.696625,3.66185 -2.211733,1.01471 -4.404165,1.62983 -6.577296,1.84535 z"
         style="font-style:normal;font-variant:normal;font-weight:bold;font-stretch:normal;font-size:10.5833px;line-height:1.25;font-family:'Source Code Pro';-inkscape-font-specification:'Source Code Pro Bold';letter-spacing:0px;white-space:pre;fill:#b28900;fill-opacity:1;stroke-width:6.14988"
         id="quote-currency-svg-dollar" />
      <path
         sodipodi:nodetypes="cccccccccccccccsccccccccsscc"
         d="m 17.629367,126.09376 4.734388,15.84489 -5.612052,1.67686 1.813373,6.06894 5.612053,-1.67686 3.750926,12.55347 7.770122,-2.32168 -3.7116,-12.42185 4.070916,-1.21638 10.320079,10.44728 8.722654,-2.6063 -10.821511,-10.44082 9.009205,-2.69191 -1.813368,-6.06893 -4.602676,1.37526 c 0.250744,-1.64336 0.08604,-3.44823 -0.503142,-5.42009 -0.610806,-2.04422 -1.472589,-3.64997 -2.588439,-4.81384 -1.115622,-1.1639 -2.412313,-1.96449 -3.888052,-2.40656 -1.451113,-0.4878 -3.039458,-0.66781 -4.76601,-0.53586 -1.691422,0.12123 -3.451357,0.45763 -5.284118,1.00526 z m 9.618203,3.86342 3.807594,-1.13769 c 2.079494,-0.62135 3.746058,-0.75471 5.003412,-0.40116 1.257471,0.35373 2.140358,1.37562 2.645845,3.06737 1.021513,3.41876 -0.564164,5.7558 -4.758344,7.009 l -3.807593,1.13769 z"
         style="font-style:normal;font-variant:normal;font-weight:bold;font-stretch:normal;font-size:10.5833px;line-height:1.25;font-family:'Source Code Pro';-inkscape-font-specification:'Source Code Pro Bold';letter-spacing:0px;white-space:pre;fill:#0c6c33;fill-opacity:1;stroke-width:5.2136"
         id="path8930" />
      <path
         sodipodi:nodetypes="ccccccccccccccccccc"
         d="m 24.861864,172.64683 2.583147,8.64519 -8.784622,2.62482 1.942961,6.50264 14.592835,-4.36028 -9.173257,28.07898 1.405354,4.7034 10.315429,-3.08221 2.536871,8.49032 6.06894,-1.81337 -2.536871,-8.49031 9.571961,-2.86007 -1.958387,-6.55426 -16.335326,4.88093 9.188684,-28.02736 -1.405359,-4.70341 -9.360275,2.79682 -2.583151,-8.64521 z"
         style="font-style:normal;font-variant:normal;font-weight:bold;font-stretch:normal;font-size:10.5833px;line-height:1.25;font-family:'Source Code Pro';-inkscape-font-specification:'Source Code Pro Bold';letter-spacing:0px;white-space:pre;fill:#800000;fill-opacity:1;stroke-width:5.2136"
         id="path51" />
      <path
         sodipodi:nodetypes="zccczccccc"
         style="opacity:1;vector-effect:none;fill:#000000;fill-opacity:1;fill-rule:evenodd;stroke:none;stroke-width:0.347475;stroke-linecap:round;stroke-linejoin:miter;stroke-miterlimit:4;stroke-dasharray:none;stroke-dashoffset:0;stroke-opacity:1;paint-order:stroke markers fill"
         d="m 98.412982,116.41395 c -6.541927,0 -11.366591,5.80095 -8.956812,11.28933 2.694795,6.49798 5.756337,10.34508 8.792678,16.68667 3.120022,-6.70299 6.844442,-11.3816 9.114872,-17.76646 1.65448,-4.73175 -2.40881,-10.20954 -8.950738,-10.20954 z m -0.161933,5.00908 c 2.321591,-1.3e-4 4.203761,1.88169 4.204061,4.20327 1.1e-4,2.3219 -1.88217,4.20417 -4.204061,4.20404 -2.321725,-8e-5 -4.203778,-1.88229 -4.203652,-4.20404 2.67e-4,-2.32142 1.882222,-4.20319 4.203652,-4.20327 z"
         id="path1840"
         inkscape:connector-curvature="0" />
      <path
         inkscape:connector-curvature="0"
         id="path5983"
         d="m -4.4857866,209.69102 c -6.5419264,0 -11.3665904,5.80095 -8.9568114,11.28933 2.694795,6.49798 5.7563368,10.34508 8.7926774,16.68667 3.120018,-6.70299 6.844442,-11.3816 9.114871,-17.76646 1.65448,-4.73175 -2.408806,-10.20954 -8.950737,-10.20954 z m -0.161933,5.00908 c 2.321588,-1.3e-4 4.20376499,1.88169 4.20405999,4.20327 1.06e-4,2.3219 -1.88217299,4.20417 -4.20405999,4.20404 -2.3217246,-8e-5 -4.2037776,-1.88229 -4.2036516,-4.20404 2.67e-4,-2.32142 1.882222,-4.20319 4.2036516,-4.20327 z"
         style="opacity:1;vector-effect:none;fill:#000000;fill-opacity:1;fill-rule:evenodd;stroke:none;stroke-width:0.347475;stroke-linecap:round;stroke-linejoin:miter;stroke-miterlimit:4;stroke-dasharray:none;stroke-dashoffset:0;stroke-opacity:1;paint-order:stroke markers fill"
         sodipodi:nodetypes="zccczccccc" />
      <path
         id="path1842"
         d="m 98.248848,144.38995 c 2.620342,8.00543 -7.309752,15.21624 -23.572068,12.54901 -16.262315,-2.66723 -26.061296,7.25134 -28.931928,13.49711 -2.870628,6.24577 3.875411,7.684 5.545844,4.47676 1.670434,-3.20723 -2.672696,-10.22306 -18.976136,-9.28761 -16.303441,0.93544 -28.0633005,11.22532 -38.4868119,5.07812 -10.4235121,-6.1472 6.30460617,-18.78052 13.2298415,-2.27179 6.9252354,16.50873 8.0180854,49.44486 2.80633,59.73474 -5.2117558,10.28987 -14.5138402,9.50073 -14.5138402,9.50073"
         style="fill:none;stroke:#000000;stroke-width:1;stroke-linecap:butt;stroke-linejoin:miter;stroke-miterlimit:4;stroke-dasharray:4, 4;stroke-dashoffset:0;stroke-opacity:1;marker-start:url(#DotM);marker-end:url(#DotM)" />
    </g>
  </g>
</svg>
