<?xml version="1.0" encoding="UTF-8" standalone="no"?>
<svg
   xmlns:dc="http://purl.org/dc/elements/1.1/"
   xmlns:cc="http://creativecommons.org/ns#"
   xmlns:rdf="http://www.w3.org/1999/02/22-rdf-syntax-ns#"
   xmlns:svg="http://www.w3.org/2000/svg"
   xmlns="http://www.w3.org/2000/svg"
   xmlns:sodipodi="http://sodipodi.sourceforge.net/DTD/sodipodi-0.dtd"
   xmlns:inkscape="http://www.inkscape.org/namespaces/inkscape"
   sodipodi:docname="quote-chatbubble-right.svg"
   inkscape:version="1.0 (4035a4fb49, 2020-05-01)"
   id="svg93"
   version="1.1"
   viewBox="0 0 59.612771 35.665879"
   height="35.665878mm"
   width="59.61277mm">
  <defs
     id="defs87">
    <rect
       x="177.46063"
       y="108.01951"
       width="25.448206"
       height="34.788239"
       id="rect909" />
    <rect
       x="177.46063"
       y="108.01951"
       width="25.448206"
       height="34.788239"
       id="rect53" />
    <rect
       id="rect8910"
       height="34.788239"
       width="25.448206"
       y="108.01951"
       x="177.46063" />
    <rect
       id="rect56"
       height="34.788239"
       width="25.448206"
       y="108.01951"
       x="177.46063" />
  </defs>
  <sodipodi:namedview
     inkscape:window-maximized="1"
     inkscape:window-y="-8"
     inkscape:window-x="-8"
     inkscape:window-height="705"
     inkscape:window-width="1366"
     showgrid="false"
     inkscape:document-rotation="0"
     inkscape:current-layer="layer1"
     inkscape:document-units="mm"
     inkscape:cy="45.517078"
     inkscape:cx="29.274397"
     inkscape:zoom="0.7"
     inkscape:pageshadow="2"
     inkscape:pageopacity="0.0"
     borderopacity="1.0"
     bordercolor="#666666"
     pagecolor="#ffffff"
     id="base" />
  <metadata
     id="metadata90">
    <rdf:RDF>
      <cc:Work
         rdf:about="">
        <dc:format>image/svg+xml</dc:format>
        <dc:type
           rdf:resource="http://purl.org/dc/dcmitype/StillImage" />
        <dc:title />
      </cc:Work>
    </rdf:RDF>
  </metadata>
  <g
     transform="translate(-104.37446,-156.06153)"
     id="layer1"
     inkscape:groupmode="layer"
     inkscape:label="Layer 1">
    <g
       id="g399"
       transform="translate(0,-8.1410161)">
      <g
         id="g217"
         transform="matrix(0.94785956,0,0,0.94785956,5.6794311,-13.842282)">
        <path
           id="path8899"
           style="fill:#aa8800;fill-opacity:1;stroke-width:2.3656"
           d="m 152.73242,187.83894 c 3.17684,0 5.73329,2.55767 5.73329,5.73451 v 6.01448 c 0,0.53792 -0.0779,1.05582 -0.21506,1.54884 1.1204,6.44019 2.62163,9.41371 2.62163,9.41371 0,0 -0.98732,-1.56758 -7.23147,-5.25003 -0.0257,-0.0141 -0.0547,-0.0289 -0.0806,-0.0441 -0.27114,0.039 -0.54531,0.066 -0.82759,0.066 h -42.87399 c -3.17684,0 -5.73452,-2.55765 -5.73452,-5.73454 v -6.01445 c 0,-3.17686 2.55768,-5.73453 5.73452,-5.73453 z"
           sodipodi:nodetypes="sssccscssssss" />
        <rect
           style="fill:#ffffff;fill-opacity:0.345528;stroke:none;stroke-width:1.07488;stroke-opacity:0"
           id="rect962"
           width="31.821833"
           height="3.2354789"
           x="109.57812"
           y="191.34424" />
        <g
           id="g968"
           transform="matrix(1.2959048,0,0,1.2959048,50.67318,53.204329)">
          <rect
             style="opacity:1;fill:#ffffff;fill-opacity:0.345528;stroke:none;stroke-width:0.985388;stroke-opacity:0"
             id="rect964"
             width="32.995914"
             height="2.6223857"
             x="45.454685"
             y="111.99773" />
        </g>
      </g>
      <g
         transform="translate(95.904743,25.416826)"
         id="g349">
        <circle
           r="5.7462945"
           cy="168.70531"
           cx="62.336197"
           id="circle345"
           style="fill:#666666;fill-opacity:1;stroke-width:4;stroke-linecap:round;stroke-linejoin:round;paint-order:markers stroke fill" />
        <path
           sodipodi:nodetypes="cccscczcsscccscc"
           d="m 62.323962,164.1219 c -1.474316,0.0231 -2.657524,1.22459 -2.65813,2.69909 0.0012,0.86103 0.412906,1.66987 1.108372,2.17751 0.0048,0.0135 0.0048,0.0231 -0.0058,0.0231 -0.04363,0 -1.135411,0.88739 -1.316083,1.15626 -0.35813,0.53288 -0.50598,0.91148 -0.570629,1.58553 1.225339,1.11201 2.203855,1.46492 3.454357,1.46329 1.250502,-0.002 1.994819,0.049 3.454356,-1.46329 -0.06465,-0.67405 -0.212499,-1.05265 -0.570629,-1.58553 -0.180672,-0.26887 -1.272444,-1.15626 -1.316083,-1.15626 -0.01061,0 -0.01,-0.0101 -0.0052,-0.0231 0.695466,-0.50764 1.107175,-1.31648 1.108372,-2.17751 -6.06e-4,-1.4745 -1.183814,-2.67594 -2.65813,-2.69909 -0.0042,-1e-5 -0.0085,-1e-5 -0.01269,0 -0.004,-1e-5 -0.0081,-1e-5 -0.01212,0 z"
           style="opacity:1;fill:#ffffff;fill-opacity:1;stroke:none;stroke-width:0.271769;stroke-linecap:butt;stroke-linejoin:miter;stroke-miterlimit:4;stroke-dasharray:none;stroke-dashoffset:0;stroke-opacity:1;paint-order:stroke markers fill"
           id="path347" />
      </g>
    </g>
  </g>
</svg>
