<?xml version="1.0" encoding="UTF-8" standalone="no"?>
<svg
   xmlns:dc="http://purl.org/dc/elements/1.1/"
   xmlns:cc="http://creativecommons.org/ns#"
   xmlns:rdf="http://www.w3.org/1999/02/22-rdf-syntax-ns#"
   xmlns:svg="http://www.w3.org/2000/svg"
   xmlns="http://www.w3.org/2000/svg"
   xmlns:sodipodi="http://sodipodi.sourceforge.net/DTD/sodipodi-0.dtd"
   xmlns:inkscape="http://www.inkscape.org/namespaces/inkscape"
   width="95.053146mm"
   height="97.671768mm"
   viewBox="0 0 95.053147 97.67177"
   version="1.1"
   id="svg93"
   inkscape:version="1.0 (4035a4fb49, 2020-05-01)"
   sodipodi:docname="quote-chatv2.svg">
  <defs
     id="defs87">
    <rect
       id="rect909"
       height="34.788239"
       width="25.448206"
       y="108.01951"
       x="177.46063" />
    <rect
       id="rect53"
       height="34.788239"
       width="25.448206"
       y="108.01951"
       x="177.46063" />
    <rect
       x="177.46063"
       y="108.01951"
       width="25.448206"
       height="34.788239"
       id="rect8910" />
    <rect
       x="177.46063"
       y="108.01951"
       width="25.448206"
       height="34.788239"
       id="rect56" />
  </defs>
  <sodipodi:namedview
     id="base"
     pagecolor="#ffffff"
     bordercolor="#666666"
     borderopacity="1.0"
     inkscape:pageopacity="0.0"
     inkscape:pageshadow="2"
     inkscape:zoom="1.4"
     inkscape:cx="213.90017"
     inkscape:cy="147.66905"
     inkscape:document-units="mm"
     inkscape:current-layer="layer1"
     inkscape:document-rotation="0"
     showgrid="false"
     inkscape:window-width="1366"
     inkscape:window-height="705"
     inkscape:window-x="-8"
     inkscape:window-y="-8"
     inkscape:window-maximized="1" />
  <metadata
     id="metadata90">
    <rdf:RDF>
      <cc:Work
         rdf:about="">
        <dc:format>image/svg+xml</dc:format>
        <dc:type
           rdf:resource="http://purl.org/dc/dcmitype/StillImage" />
        <dc:title />
      </cc:Work>
    </rdf:RDF>
  </metadata>
  <g
     inkscape:label="Layer 1"
     inkscape:groupmode="layer"
     id="layer1"
     transform="translate(-60.532125,-93.474808)">
    <path
       id="rect8889"
       style="fill:#5d0000;fill-opacity:1;stroke-width:2.24226"
       d="m 74.60771,114.07626 c -3.011227,0 -5.434359,2.42432 -5.434359,5.43555 v 17.5661 c 0,0.50989 0.07377,1.00078 0.20382,1.46808 -1.061974,6.10442 -2.484927,8.92287 -2.484927,8.92287 0,0 0.935848,-1.48581 6.85442,-4.97628 0.02445,-0.0134 0.0518,-0.0274 0.07646,-0.0418 0.257005,0.037 0.516882,0.0626 0.78445,0.0626 h 40.638436 c 3.01119,0 5.43552,-2.42429 5.43552,-5.43552 v -17.56605 c 0,-3.01122 -2.42433,-5.43554 -5.43552,-5.43554 z"
       sodipodi:nodetypes="sssccscssssss" />
    <rect
       style="fill:#ffffff;fill-opacity:0.35;stroke:none;stroke-width:1.22833;stroke-opacity:0"
       id="rect943"
       width="41.740993"
       height="3.2211699"
       x="74.049767"
       y="119.68503" />
    <rect
       y="126.39581"
       x="74.049774"
       height="3.2211702"
       width="19.461235"
       id="rect945"
       style="fill:#ffffff;fill-opacity:0.35;stroke:none;stroke-width:0.838727;stroke-opacity:0" />
    <rect
       style="fill:#ffffff;fill-opacity:0.35;stroke:none;stroke-width:0.838727;stroke-opacity:0"
       id="rect947"
       width="19.461235"
       height="3.2211702"
       x="96.329536"
       y="126.39581" />
    <rect
       y="133.10658"
       x="74.049767"
       height="3.2211699"
       width="31.809055"
       id="rect949"
       style="fill:#ffffff;fill-opacity:0.35;stroke:none;stroke-width:1.07229;stroke-opacity:0" />
    <circle
       cy="155.86099"
       cx="66.278419"
       id="path335"
       style="fill:#590000;fill-opacity:1;stroke-width:4;stroke-linecap:round;stroke-linejoin:round;paint-order:markers stroke fill"
       r="5.7462945" />
    <path
       d="m 66.266187,151.27759 a 2.7005321,2.7005321 0 0 0 -2.65813,2.69909 2.7005321,2.7005321 0 0 0 1.108373,2.17751 c 0.0048,0.0135 0.0048,0.0231 -0.0058,0.0231 -0.04363,0 -1.135411,0.88739 -1.316083,1.15626 -0.35813,0.53288 -0.50598,0.91148 -0.570629,1.58553 a 4.7372747,4.7372747 0 0 0 3.03778,1.47706 l 0.201941,-2.20116 c 0,0 -0.371513,-0.31601 -0.371572,-0.58333 4.2e-5,-0.33007 0.260033,-0.59871 0.586208,-0.61448 0.326196,0.0156 0.586165,0.28441 0.586207,0.61448 -6e-5,0.26732 -0.370995,0.58333 -0.370995,0.58333 l 0.201941,2.20116 a 4.7372747,4.7372747 0 0 0 3.037203,-1.47706 c -0.06465,-0.67405 -0.212499,-1.05265 -0.570629,-1.58553 -0.180672,-0.26887 -1.272444,-1.15626 -1.316083,-1.15626 -0.01061,0 -0.01,-0.0101 -0.0052,-0.0231 a 2.7005321,2.7005321 0 0 0 1.108372,-2.17751 2.7005321,2.7005321 0 0 0 -2.65813,-2.69909 2.7005321,2.7005321 0 0 0 -0.01269,0 2.7005321,2.7005321 0 0 0 -0.01212,0 z"
       style="fill:#ffffff;fill-opacity:1;stroke:none;stroke-width:0.271769;stroke-linecap:butt;stroke-linejoin:miter;stroke-miterlimit:4;stroke-dasharray:none;stroke-dashoffset:0;stroke-opacity:1;paint-order:stroke markers fill"
       id="path60" />
    <path
       sodipodi:nodetypes="sssccscssssss"
       d="m 63.775065,99.41706 c -1.04347,0 -1.883149,0.84009 -1.883149,1.88356 v 3.67724 c 0,0.17669 0.02556,0.3468 0.07063,0.50873 -0.368002,2.11535 -0.861093,3.09201 -0.861093,3.09201 0,0 0.324296,-0.51487 2.375238,-1.72441 0.0085,-0.005 0.01795,-0.009 0.0265,-0.0145 0.08906,0.0128 0.179113,0.0217 0.271833,0.0217 h 14.082291 c 1.04346,0 1.883554,-0.84008 1.883554,-1.88355 v -3.67722 c 0,-1.04347 -0.840094,-1.883563 -1.883554,-1.883563 z"
       style="fill:#ffffff;fill-opacity:0.60000002;stroke-width:0.777001"
       id="rect8889-9" />
    <path
       id="rect943-0"
       style="fill:#590000;fill-opacity:0.5;stroke:none;stroke-width:0.425649;stroke-opacity:0"
       d="m 63.581724,101.36065 h 14.464358 v 1.11622 H 63.581724 Z"
       sodipodi:nodetypes="ccccc" />
    <rect
       style="fill:#590000;fill-opacity:0.5;stroke:none;stroke-width:0.371575;stroke-opacity:0"
       id="rect949-3"
       width="11.022679"
       height="1.1162207"
       x="63.581722"
       y="103.60169" />
    <path
       id="path900"
       style="fill:#ffffff;fill-opacity:0.60000002;stroke-width:1.21735"
       d="m 110.20106,93.474808 c -1.63484,0 -2.95039,1.316191 -2.95039,2.95103 v 5.761232 c 0,0.27683 0.04,0.54335 0.11066,0.79705 -0.57656,3.31417 -1.3491,4.84434 -1.3491,4.84434 0,0 0.50808,-0.80667 3.72135,-2.70169 0.0133,-0.007 0.0281,-0.0149 0.0415,-0.0227 0.13953,0.0201 0.28062,0.034 0.42588,0.034 h 22.06313 c 1.63482,0 2.95102,-1.31618 2.95102,-2.95101 v -5.761213 c 0,-1.634834 -1.3162,-2.951029 -2.95102,-2.951029 z"
       sodipodi:nodetypes="sssccscssssss" />
    <path
       sodipodi:nodetypes="ccccc"
       d="m 109.89814,96.519882 h 22.66172 v 1.748813 h -22.66172 z"
       style="fill:#590000;fill-opacity:0.5;stroke:none;stroke-width:0.666877;stroke-opacity:0"
       id="path902" />
    <rect
       y="100.03099"
       x="109.89814"
       height="1.7488148"
       width="17.269547"
       id="rect904"
       style="fill:#590000;fill-opacity:0.5;stroke:none;stroke-width:0.582157;stroke-opacity:0" />
    <path
       sodipodi:nodetypes="sssccscssssss"
       d="m 145.61388,136.57369 c 1.22333,0 2.20774,0.98489 2.20774,2.20822 v 4.31107 c 0,0.20715 -0.03,0.40658 -0.0828,0.59642 0.43144,2.47996 1.00952,3.62497 1.00952,3.62497 0,0 -0.38019,-0.60362 -2.78465,-2.02164 -0.01,-0.005 -0.021,-0.0111 -0.0311,-0.017 -0.10441,0.015 -0.20999,0.0254 -0.31869,0.0254 h -16.5096 c -1.22331,0 -2.20821,-0.98488 -2.20821,-2.20821 v -4.31105 c 0,-1.22333 0.9849,-2.20823 2.20821,-2.20823 z"
       style="fill:#ffffff;fill-opacity:0.60000002;stroke-width:0.91093"
       id="path954" />
    <path
       id="path956"
       style="fill:#008000;fill-opacity:0.5;stroke:none;stroke-width:0.499017;stroke-opacity:0"
       d="m 145.84054,138.85228 h -16.95752 v 1.30862 h 16.95752 z"
       sodipodi:nodetypes="ccccc" />
    <rect
       transform="scale(-1,1)"
       style="fill:#008000;fill-opacity:0.5;stroke:none;stroke-width:0.435622;stroke-opacity:0"
       id="rect958"
       width="12.922613"
       height="1.308619"
       x="-145.84055"
       y="141.47961" />
    <path
       id="rect8889-9-6"
       style="fill:#ffffff;fill-opacity:0.6;stroke-width:1.27361"
       d="m 108.69944,176.12959 c 1.71039,0 3.08674,1.37702 3.08674,3.08741 v 6.02748 c 0,0.28962 -0.0419,0.56845 -0.11577,0.83388 0.6032,3.46733 1.41144,5.06822 1.41144,5.06822 0,0 -0.53156,-0.84395 -3.89333,-2.82655 -0.0139,-0.008 -0.0294,-0.0156 -0.0434,-0.0237 -0.14598,0.021 -0.29359,0.0355 -0.44557,0.0355 H 85.616773 c -1.710369,0 -3.087396,-1.377 -3.087396,-3.08739 v -6.02745 c 0,-1.71039 1.377027,-3.08741 3.087396,-3.08741 z"
       sodipodi:nodetypes="sssccscssssss" />
    <path
       sodipodi:nodetypes="ccccc"
       d="M 109.01636,179.31539 H 85.307351 v 1.82963 h 23.709009 z"
       style="fill:#008000;fill-opacity:0.5;stroke:none;stroke-width:0.697696;stroke-opacity:0"
       id="rect943-0-8" />
    <rect
       transform="scale(-1,1)"
       y="182.98875"
       x="-109.01636"
       height="1.8296341"
       width="18.067636"
       id="rect949-3-3"
       style="fill:#008000;fill-opacity:0.5;stroke:none;stroke-width:0.609061;stroke-opacity:0" />
    <path
       sodipodi:nodetypes="sssccscssssss"
       d="m 142.04634,152.00045 c 3.0112,0 5.43436,2.42431 5.43436,5.43551 v 5.70088 c 0,0.50988 -0.0738,1.00077 -0.20385,1.46809 1.06198,6.10439 2.48494,8.92287 2.48494,8.92287 0,0 -0.93584,-1.48585 -6.85442,-4.97629 -0.0244,-0.0134 -0.0518,-0.0274 -0.0764,-0.0418 -0.257,0.037 -0.51687,0.0626 -0.78444,0.0626 h -40.63852 c -3.011196,0 -5.435518,-2.4243 -5.435518,-5.43554 v -5.70086 c 0,-3.01121 2.424322,-5.43552 5.435518,-5.43552 z"
       style="fill:#008000;fill-opacity:1;stroke-width:2.24226"
       id="path8899" />
    <rect
       y="155.32298"
       x="101.14213"
       height="3.0667796"
       width="30.162628"
       id="rect962"
       style="fill:#ffffff;fill-opacity:0.345528;stroke:none;stroke-width:1.01884;stroke-opacity:0" />
    <rect
       style="fill:#ffffff;fill-opacity:0.345528;stroke:none;stroke-width:1.21039;stroke-opacity:0"
       id="rect964"
       width="40.530064"
       height="3.2211702"
       x="101.14214"
       y="161.95656" />
    <circle
       style="fill:#008000;fill-opacity:1;stroke-width:4;stroke-linecap:round;stroke-linejoin:round;paint-order:markers stroke fill"
       id="circle345"
       cx="149.83897"
       cy="181.91994"
       r="5.7462945" />
    <path
       id="path347"
       style="fill:#ffffff;fill-opacity:1;stroke:none;stroke-width:0.271769;stroke-linecap:butt;stroke-linejoin:miter;stroke-miterlimit:4;stroke-dasharray:none;stroke-dashoffset:0;stroke-opacity:1;paint-order:stroke markers fill"
       d="m 149.82673,177.33652 c -1.47431,0.0231 -2.65752,1.22459 -2.65813,2.69909 0.001,0.86103 0.41291,1.66987 1.10837,2.17751 0.005,0.0135 0.005,0.0231 -0.006,0.0231 -0.0436,0 -1.13541,0.88739 -1.31608,1.15626 -0.35813,0.53288 -0.50598,0.91148 -0.57063,1.58553 1.22534,1.11201 2.20386,1.46492 3.45436,1.46329 1.2505,-0.002 1.99482,0.049 3.45436,-1.46329 -0.0647,-0.67405 -0.2125,-1.05265 -0.57063,-1.58553 -0.18068,-0.26887 -1.27245,-1.15626 -1.31609,-1.15626 -0.0106,0 -0.01,-0.0101 -0.005,-0.0231 0.69547,-0.50764 1.10718,-1.31648 1.10838,-2.17751 -6.1e-4,-1.4745 -1.18382,-2.67594 -2.65813,-2.69909 -0.004,-1e-5 -0.008,-1e-5 -0.0127,0 -0.004,-1e-5 -0.008,-1e-5 -0.0121,0 z"
       sodipodi:nodetypes="cccscczcsscccscc" />
  </g>
</svg>
