<?xml version="1.0" encoding="UTF-8" standalone="no"?>
<svg
   xmlns:dc="http://purl.org/dc/elements/1.1/"
   xmlns:cc="http://creativecommons.org/ns#"
   xmlns:rdf="http://www.w3.org/1999/02/22-rdf-syntax-ns#"
   xmlns:svg="http://www.w3.org/2000/svg"
   xmlns="http://www.w3.org/2000/svg"
   xmlns:sodipodi="http://sodipodi.sourceforge.net/DTD/sodipodi-0.dtd"
   xmlns:inkscape="http://www.inkscape.org/namespaces/inkscape"
   sodipodi:docname="quote-chat.svg"
   inkscape:version="1.0 (4035a4fb49, 2020-05-01)"
   id="svg93"
   version="1.1"
   viewBox="0 0 103.45511 77.651185"
   height="77.651184mm"
   width="103.45511mm">
  <defs
     id="defs87">
    <rect
       x="177.46063"
       y="108.01951"
       width="25.448206"
       height="34.788239"
       id="rect909" />
    <rect
       x="177.46063"
       y="108.01951"
       width="25.448206"
       height="34.788239"
       id="rect53" />
    <rect
       id="rect8910"
       height="34.788239"
       width="25.448206"
       y="108.01951"
       x="177.46063" />
    <rect
       id="rect56"
       height="34.788239"
       width="25.448206"
       y="108.01951"
       x="177.46063" />
  </defs>
  <sodipodi:namedview
     inkscape:window-maximized="1"
     inkscape:window-y="-8"
     inkscape:window-x="-8"
     inkscape:window-height="705"
     inkscape:window-width="1366"
     showgrid="false"
     inkscape:document-rotation="0"
     inkscape:current-layer="layer1"
     inkscape:document-units="mm"
     inkscape:cy="281.24052"
     inkscape:cx="318.94739"
     inkscape:zoom="0.35"
     inkscape:pageshadow="2"
     inkscape:pageopacity="0.0"
     borderopacity="1.0"
     bordercolor="#666666"
     pagecolor="#ffffff"
     id="base" />
  <metadata
     id="metadata90">
    <rdf:RDF>
      <cc:Work
         rdf:about="">
        <dc:format>image/svg+xml</dc:format>
        <dc:type
           rdf:resource="http://purl.org/dc/dcmitype/StillImage" />
        <dc:title></dc:title>
      </cc:Work>
    </rdf:RDF>
  </metadata>
  <g
     transform="translate(-60.532128,-114.07623)"
     id="layer1"
     inkscape:groupmode="layer"
     inkscape:label="Layer 1">
    <g
       id="g389"
       transform="translate(0,-15.875)">
      <g
         id="g208"
         transform="matrix(0.94785956,0,0,0.94785956,5.6794311,-13.842282)">
        <path
           sodipodi:nodetypes="sssccscssssss"
           d="m 72.719928,151.70343 c -3.176871,0 -5.733296,2.55767 -5.733296,5.73455 v 18.53238 c 0,0.53794 0.07783,1.05584 0.215032,1.54884 -1.120391,6.44022 -2.621619,9.41371 -2.621619,9.41371 0,0 0.987328,-1.56755 7.231472,-5.25002 0.02579,-0.0141 0.05465,-0.0289 0.08067,-0.0441 0.271143,0.039 0.545315,0.066 0.827602,0.066 h 42.873891 c 3.17684,0 5.73453,-2.55765 5.73453,-5.73452 v -18.53233 c 0,-3.17687 -2.55769,-5.73455 -5.73453,-5.73455 z"
           style="fill:#5d0000;fill-opacity:1;stroke-width:2.3656"
           id="rect8889" />
        <rect
           y="157.62073"
           x="72.131294"
           height="3.3983622"
           width="44.037109"
           id="rect943"
           style="fill:#ffffff;fill-opacity:0.345528;stroke:none;stroke-width:1.2959;stroke-opacity:0" />
        <g
           transform="matrix(1.2959048,0,0,1.2959048,13.226352,19.562259)"
           id="g953">
          <rect
             y="111.99773"
             x="45.454685"
             height="2.6223857"
             width="15.843578"
             id="rect945"
             style="opacity:1;fill:#ffffff;fill-opacity:0.345528;stroke:none;stroke-width:0.682816;stroke-opacity:0" />
          <rect
             style="opacity:1;fill:#ffffff;fill-opacity:0.345528;stroke:none;stroke-width:0.682816;stroke-opacity:0"
             id="rect947"
             width="15.843578"
             height="2.6223857"
             x="63.592854"
             y="111.99773" />
        </g>
        <rect
           style="fill:#ffffff;fill-opacity:0.345528;stroke:none;stroke-width:1.13127;stroke-opacity:0"
           id="rect949"
           width="33.558826"
           height="3.3983622"
           x="72.131294"
           y="171.78058" />
      </g>
      <g
         transform="translate(3.9422255,3.0306847)"
         id="g343">
        <circle
           style="fill:#666666;fill-opacity:1;stroke-width:4;stroke-linecap:round;stroke-linejoin:round;paint-order:markers stroke fill"
           id="path335"
           cx="62.336197"
           cy="168.70531"
           r="5.7462945" />
        <path
           id="path60"
           style="opacity:1;fill:#ffffff;fill-opacity:1;stroke:none;stroke-width:0.271769;stroke-linecap:butt;stroke-linejoin:miter;stroke-miterlimit:4;stroke-dasharray:none;stroke-dashoffset:0;stroke-opacity:1;paint-order:stroke markers fill"
           d="m 62.323962,164.1219 a 2.7005321,2.7005321 0 0 0 -2.65813,2.69909 2.7005321,2.7005321 0 0 0 1.108372,2.17751 c 0.0048,0.0135 0.0048,0.0231 -0.0058,0.0231 -0.04363,0 -1.135411,0.88739 -1.316083,1.15626 -0.35813,0.53288 -0.50598,0.91148 -0.570629,1.58553 a 4.7372747,4.7372747 0 0 0 3.03778,1.47706 l 0.201941,-2.20116 c 0,0 -0.371512,-0.31601 -0.371572,-0.58333 4.2e-5,-0.33007 0.260033,-0.59871 0.586208,-0.61448 0.326196,0.0156 0.586165,0.28441 0.586207,0.61448 -6e-5,0.26732 -0.370995,0.58333 -0.370995,0.58333 l 0.201941,2.20116 a 4.7372747,4.7372747 0 0 0 3.037203,-1.47706 c -0.06465,-0.67405 -0.212499,-1.05265 -0.570629,-1.58553 -0.180672,-0.26887 -1.272444,-1.15626 -1.316083,-1.15626 -0.01061,0 -0.01,-0.0101 -0.0052,-0.0231 a 2.7005321,2.7005321 0 0 0 1.108372,-2.17751 2.7005321,2.7005321 0 0 0 -2.65813,-2.69909 2.7005321,2.7005321 0 0 0 -0.01269,0 2.7005321,2.7005321 0 0 0 -0.01212,0 z" />
      </g>
    </g>
    <g
       id="g399"
       transform="translate(0,-8.1410161)">
      <g
         id="g217"
         transform="matrix(0.94785956,0,0,0.94785956,5.6794311,-13.842282)">
        <path
           id="path8899"
           style="fill:#aa8800;fill-opacity:1;stroke-width:2.3656"
           d="m 152.73242,187.83894 c 3.17684,0 5.73329,2.55767 5.73329,5.73451 v 6.01448 c 0,0.53792 -0.0779,1.05582 -0.21506,1.54884 1.1204,6.44019 2.62163,9.41371 2.62163,9.41371 0,0 -0.98732,-1.56758 -7.23147,-5.25003 -0.0257,-0.0141 -0.0547,-0.0289 -0.0806,-0.0441 -0.27114,0.039 -0.54531,0.066 -0.82759,0.066 h -42.87399 c -3.17684,0 -5.73452,-2.55765 -5.73452,-5.73454 v -6.01445 c 0,-3.17686 2.55768,-5.73453 5.73452,-5.73453 z"
           sodipodi:nodetypes="sssccscssssss" />
        <rect
           style="fill:#ffffff;fill-opacity:0.345528;stroke:none;stroke-width:1.07488;stroke-opacity:0"
           id="rect962"
           width="31.821833"
           height="3.2354789"
           x="109.57812"
           y="191.34424" />
        <g
           id="g968"
           transform="matrix(1.2959048,0,0,1.2959048,50.67318,53.204329)">
          <rect
             style="opacity:1;fill:#ffffff;fill-opacity:0.345528;stroke:none;stroke-width:0.985388;stroke-opacity:0"
             id="rect964"
             width="32.995914"
             height="2.6223857"
             x="45.454685"
             y="111.99773" />
        </g>
      </g>
      <g
         transform="translate(95.904743,25.416826)"
         id="g349">
        <circle
           r="5.7462945"
           cy="168.70531"
           cx="62.336197"
           id="circle345"
           style="fill:#666666;fill-opacity:1;stroke-width:4;stroke-linecap:round;stroke-linejoin:round;paint-order:markers stroke fill" />
        <path
           sodipodi:nodetypes="cccscczcsscccscc"
           d="m 62.323962,164.1219 c -1.474316,0.0231 -2.657524,1.22459 -2.65813,2.69909 0.0012,0.86103 0.412906,1.66987 1.108372,2.17751 0.0048,0.0135 0.0048,0.0231 -0.0058,0.0231 -0.04363,0 -1.135411,0.88739 -1.316083,1.15626 -0.35813,0.53288 -0.50598,0.91148 -0.570629,1.58553 1.225339,1.11201 2.203855,1.46492 3.454357,1.46329 1.250502,-0.002 1.994819,0.049 3.454356,-1.46329 -0.06465,-0.67405 -0.212499,-1.05265 -0.570629,-1.58553 -0.180672,-0.26887 -1.272444,-1.15626 -1.316083,-1.15626 -0.01061,0 -0.01,-0.0101 -0.0052,-0.0231 0.695466,-0.50764 1.107175,-1.31648 1.108372,-2.17751 -6.06e-4,-1.4745 -1.183814,-2.67594 -2.65813,-2.69909 -0.0042,-1e-5 -0.0085,-1e-5 -0.01269,0 -0.004,-1e-5 -0.0081,-1e-5 -0.01212,0 z"
           style="opacity:1;fill:#ffffff;fill-opacity:1;stroke:none;stroke-width:0.271769;stroke-linecap:butt;stroke-linejoin:miter;stroke-miterlimit:4;stroke-dasharray:none;stroke-dashoffset:0;stroke-opacity:1;paint-order:stroke markers fill"
           id="path347" />
      </g>
    </g>
  </g>
</svg>
