<?xml version="1.0" encoding="UTF-8" standalone="no"?>
<svg
   xmlns:dc="http://purl.org/dc/elements/1.1/"
   xmlns:cc="http://creativecommons.org/ns#"
   xmlns:rdf="http://www.w3.org/1999/02/22-rdf-syntax-ns#"
   xmlns:svg="http://www.w3.org/2000/svg"
   xmlns="http://www.w3.org/2000/svg"
   xmlns:sodipodi="http://sodipodi.sourceforge.net/DTD/sodipodi-0.dtd"
   xmlns:inkscape="http://www.inkscape.org/namespaces/inkscape"
   sodipodi:docname="text-chat_to_us.svg"
   inkscape:version="1.0 (4035a4fb49, 2020-05-01)"
   id="svg1035"
   version="1.1"
   viewBox="0 0 174.61931 22.525238"
   height="22.525238mm"
   width="174.61931mm">
  <defs
     id="defs1029">
    <rect
       id="rect1091"
       height="97.51786"
       width="281.97025"
       y="212.42262"
       x="-56.69643" />
  </defs>
  <sodipodi:namedview
     inkscape:window-maximized="1"
     inkscape:window-y="-8"
     inkscape:window-x="-8"
     inkscape:window-height="705"
     inkscape:window-width="1366"
     showgrid="false"
     inkscape:document-rotation="0"
     inkscape:current-layer="layer1"
     inkscape:document-units="mm"
     inkscape:cy="-83.980462"
     inkscape:cx="280.86719"
     inkscape:zoom="0.35"
     inkscape:pageshadow="2"
     inkscape:pageopacity="0.0"
     borderopacity="1.0"
     bordercolor="#666666"
     pagecolor="#ffffff"
     id="base" />
  <metadata
     id="metadata1032">
    <rdf:RDF>
      <cc:Work
         rdf:about="">
        <dc:format>image/svg+xml</dc:format>
        <dc:type
           rdf:resource="http://purl.org/dc/dcmitype/StillImage" />
        <dc:title></dc:title>
      </cc:Work>
    </rdf:RDF>
  </metadata>
  <g
     transform="translate(-31.520556,-170.3865)"
     id="layer1"
     inkscape:groupmode="layer"
     inkscape:label="Layer 1">
    <path
       transform="scale(0.26458333)"
       d="m 203.67773,643.98047 v 83.57812 h 19.22852 v -29.5957 c 0,-5.47875 1.14572,-9.75828 3.4375,-12.83789 2.29178,-3.11536 5.44446,-4.67383 9.45508,-4.67383 1.64722,0 3.11516,0.35805 4.40429,1.07422 1.28913,0.68034 2.30855,1.64705 3.06055,2.90039 0.57292,0.93105 0.96676,2.38208 1.18164,4.35156 0.25064,1.96952 0.37696,5.58569 0.37696,10.84961 v 21.96875 5.96289 h 19.33593 v -36.63281 c 0,-8.12865 -1.80711,-14.32464 -5.42382,-18.58594 -3.58092,-4.26124 -8.84601,-6.39062 -15.79297,-6.39062 -3.93901,0 -7.53825,0.84039 -10.79688,2.52344 -3.25863,1.64719 -6.33774,4.22513 -9.23828,7.73437 v -32.22656 z m -41.09179,1.93359 c -13.35679,0 -23.93776,3.74242 -31.74414,11.22656 -7.80639,7.44824 -11.70899,17.58074 -11.70899,30.4004 0,12.78389 3.9026,22.91827 11.70899,30.40234 7.80638,7.44834 18.38735,11.17187 31.74414,11.17187 4.47614,0 8.77258,-0.50119 12.89062,-1.5039 4.11805,-1.00263 8.07533,-2.48752 11.8711,-4.45703 v -16.59766 c -3.83158,2.61407 -7.60789,4.52858 -11.33204,5.74609 -3.72414,1.21754 -7.64562,1.82813 -11.76367,1.82813 -7.37667,0 -13.17882,-2.36497 -17.40429,-7.0918 -4.22548,-4.72683 -6.33789,-11.22615 -6.33789,-19.49804 0,-8.30771 2.11241,-14.82403 6.33789,-19.55079 4.22547,-4.72682 10.02762,-7.08984 17.40429,-7.08984 4.11805,0 8.03953,0.60866 11.76367,1.82617 3.72415,1.21751 7.50046,3.132 11.33204,5.7461 V 651.875 c -3.79577,-1.96951 -7.75305,-3.4544 -11.8711,-4.45703 -4.11804,-1.00268 -8.41448,-1.50391 -12.89062,-1.50391 z m 195.625,4.4043 v 17.08008 h -9.56055 v 13.75195 h 9.56055 v 25.51367 c 0,7.59149 1.57535,12.98095 4.72656,16.16797 3.187,3.15119 8.57644,4.72656 16.16797,4.72656 h 16.49023 v -13.75195 h -9.88281 c -3.29441,0 -5.49732,-0.48241 -6.60742,-1.44922 -1.11008,-1.00268 -1.66406,-2.90026 -1.66406,-5.69336 v -25.51367 h 19.82031 v -13.75195 h -19.82031 v -17.08008 z m 90.88476,0 v 17.08008 h -9.5625 v 13.75195 h 9.5625 v 25.51367 c 0,7.59149 1.57535,12.98095 4.72657,16.16797 3.18699,3.15119 8.57643,4.72656 16.16796,4.72656 h 16.49024 v -13.75195 h -9.88477 c -3.29443,0 -5.49539,-0.48241 -6.60547,-1.44922 -1.11007,-1.00268 -1.66601,-2.90026 -1.66601,-5.69336 v -25.51367 h 19.82031 v -13.75195 h -19.82031 v -17.08008 z m -141.375,15.63086 c -4.15386,0 -8.30708,0.26767 -12.46093,0.80469 -4.15386,0.50136 -8.29016,1.25322 -12.40821,2.25586 v 14.66406 c 3.04377,-1.6472 6.33771,-2.8815 9.88282,-3.70508 3.5451,-0.82363 7.37609,-1.23633 11.49414,-1.23633 5.08489,0 8.82735,0.71605 11.22656,2.14844 2.39921,1.39651 3.59961,3.61638 3.59961,6.66016 v 1.5039 H 307.7207 c -10.38464,0 -18.01277,1.647 -22.88281,4.94141 -4.83423,3.29444 -7.25,8.46907 -7.25,15.52344 0,5.80112 1.9334,10.5291 5.80078,14.18164 3.90319,3.61673 8.97038,5.42382 15.20117,5.42382 4.61937,0 8.5389,-0.82348 11.76172,-2.4707 3.22282,-1.68305 6.12487,-4.34942 8.70313,-8.00195 v 8.91601 h 19.39062 v -34.32421 c 0,-9.63266 -2.41772,-16.57856 -7.25195,-20.83985 -4.79842,-4.29704 -12.6225,-6.44531 -23.47266,-6.44531 z m 220.8711,0 c -10.38463,0 -18.51402,2.79269 -24.38672,8.3789 -5.83688,5.58622 -8.75586,13.32179 -8.75586,23.20508 0,9.88334 2.91898,17.61691 8.75586,23.20313 5.8727,5.58624 14.00209,8.3789 24.38672,8.3789 10.34882,0 18.42354,-2.79266 24.22461,-8.3789 5.8369,-5.58622 8.75586,-13.31979 8.75586,-23.20313 0,-9.88329 -2.91896,-17.61886 -8.75586,-23.20508 -5.80107,-5.58621 -13.87579,-8.3789 -24.22461,-8.3789 z m 186.76172,0 c -9.0239,0 -15.72114,1.53961 -20.08985,4.61914 -4.3687,3.07961 -6.55273,7.80759 -6.55273,14.18164 0,5.90843 1.71857,10.31233 5.15625,13.21289 3.43765,2.90054 9.43575,4.88665 17.99414,5.96094 l 3.38476,0.42969 c 3.9032,0.46553 6.49994,1.12889 7.78907,1.98828 1.32495,0.82363 1.98632,2.09369 1.98632,3.8125 0,2.04114 -0.9478,3.58263 -2.8457,4.62109 -1.89788,1.03846 -4.72833,1.55664 -8.48828,1.55664 -4.15385,0 -8.25239,-0.46543 -12.29883,-1.39648 -4.01061,-0.93105 -7.93209,-2.32741 -11.76367,-4.18946 v 14.60938 c 4.47614,1.25367 8.82727,2.18454 13.05273,2.79297 4.2613,0.64443 8.37872,0.96679 12.35352,0.96679 9.382,0 16.43726,-1.61113 21.16406,-4.83398 4.72681,-3.22283 7.08985,-8.03942 7.08985,-14.44922 0,-6.12339 -1.70164,-10.61769 -5.10352,-13.48242 -3.40185,-2.86473 -10.02554,-4.92252 -19.87305,-6.17578 l -3.38476,-0.48438 c -3.47349,-0.39395 -5.8912,-1.00258 -7.25195,-1.82617 -1.32493,-0.82363 -1.98633,-2.00519 -1.98633,-3.54492 0,-1.89793 0.8762,-3.29423 2.63086,-4.18945 1.79043,-0.93105 4.51348,-1.39649 8.16601,-1.39649 3.40185,0 7.01803,0.4296 10.84961,1.28906 3.83159,0.85939 7.80578,2.14839 11.92383,3.86719 V 669.2793 c -4.58358,-1.14601 -8.82728,-1.98835 -12.73047,-2.52539 -3.90317,-0.53702 -7.62675,-0.80469 -11.17187,-0.80469 z m -102.16407,1.44922 v 36.74023 c 0,8.12866 1.80905,14.32465 5.42578,18.58594 3.65254,4.26129 8.95149,6.39062 15.89844,6.39062 3.9032,0 7.46663,-0.82351 10.68945,-2.4707 3.25864,-1.68305 6.33775,-4.27779 9.23829,-7.78711 v 8.70117 h 19.23047 v -60.16015 h -19.23047 v 29.70508 c 0,5.4788 -1.14572,9.7564 -3.4375,12.83593 -2.29178,3.07961 -5.4425,4.6211 -9.45313,4.6211 -1.64722,0 -3.11517,-0.34102 -4.4043,-1.02149 -1.25331,-0.68034 -2.27469,-1.64705 -3.0625,-2.90039 -0.6087,-0.9668 -1.03835,-2.50641 -1.28906,-4.61914 -0.25071,-2.14856 -0.375,-5.64037 -0.375,-10.47461 0,-1.64722 0.017,-4.9242 0.0527,-9.83008 0.0358,-4.94163 0.0547,-9.04217 0.0547,-12.30078 v -6.01562 z m -84.59765,12.30078 c 4.18968,0 7.39313,1.53953 9.61328,4.61914 2.22017,3.0437 3.33008,7.44955 3.33008,13.21484 0,5.76527 -1.10991,10.18599 -3.33008,13.26563 -2.22015,3.0437 -5.4236,4.5664 -9.61328,4.5664 -4.26129,0 -7.52137,-1.5227 -9.77735,-4.5664 -2.22014,-3.07964 -3.33008,-7.50036 -3.33007,-13.26563 -10e-6,-5.76529 1.10993,-10.17114 3.33007,-13.21484 2.25598,-3.07961 5.51606,-4.61914 9.77735,-4.61914 z m -219.5293,20.78711 h 9.99219 v 2.20312 c 0,3.9032 -1.23621,7.16132 -3.70703,9.77539 -2.47083,2.57827 -5.51415,3.86719 -9.13086,3.86719 -2.90054,0 -5.17505,-0.68026 -6.82227,-2.04101 -1.61141,-1.39657 -2.41601,-3.31303 -2.41601,-5.74805 0,-2.64985 1.0025,-4.65487 3.00781,-6.01563 2.04112,-1.36073 5.06555,-2.04101 9.07617,-2.04101 z m 450.71289,6.28515 v 20.78711 h 19.33594 v -20.78711 z"
       style="font-style:normal;font-weight:bold;font-size:10.5833px;line-height:1.25;font-family:sans-serif;white-space:pre;fill:#000000;fill-opacity:1;stroke:none;stroke-width:10.3943"
       id="path1095" />
  </g>
</svg>
